SplineFontDB: 3.2
FontName: Pointfree-Bold
FullName: Pointfree
FamilyName: Pointfree
Weight: Bold
Copyright: wrp, 2011. Released under the terms of the Unlicense.
Version: 1.0
ItalicAngle: 0
UnderlinePosition: -178.576
UnderlineWidth: 24.9756
Ascent: 819
Descent: 205
InvalidEm: 0
sfntRevision: 0x00010000
LayerCount: 2
Layer: 0 1 "Back" 1
Layer: 1 1 "Fore" 0
XUID: [1021 636 -504039109 3144743]
StyleMap: 0x0040
FSType: 0
OS2Version: 3
OS2_WeightWidthSlopeOnly: 0
OS2_UseTypoMetrics: 0
CreationTime: 1316413706
ModificationTime: 1613158518
PfmFamily: 17
TTFWeight: 400
TTFWidth: 5
LineGap: 0
VLineGap: 0
Panose: 2 0 5 3 0 0 0 0 0 0
OS2TypoAscent: 1113
OS2TypoAOffset: 0
OS2TypoDescent: -320
OS2TypoDOffset: 0
OS2TypoLinegap: 0
OS2WinAscent: 1113
OS2WinAOffset: 0
OS2WinDescent: 320
OS2WinDOffset: 0
HheadAscent: 1113
HheadAOffset: 0
HheadDescent: -320
HheadDOffset: 0
OS2SubXSize: 731
OS2SubYSize: 678
OS2SubXOff: 0
OS2SubYOff: 150
OS2SupXSize: 731
OS2SupYSize: 678
OS2SupXOff: 0
OS2SupYOff: 473
OS2StrikeYSize: 52
OS2StrikeYPos: 261
OS2CapHeight: 766
OS2XHeight: 567
OS2Vendor: '    '
OS2CodePages: 00000001.00000000
OS2UnicodeRanges: 00000001.00000000.00000000.00000000
MarkAttachClasses: 1
DEI: 91125
ShortTable: maxp 16
  1
  0
  98
  112
  5
  0
  0
  0
  0
  0
  0
  0
  0
  0
  0
  0
EndShort
LangName: 1033 "" "" "" "" "" "1.0"
Encoding: UnicodeBmp
UnicodeInterp: none
NameList: AGL For New Fonts
DisplaySize: -48
AntiAlias: 1
FitToEm: 0
WinInfo: 0 51 19
BeginPrivate: 0
EndPrivate
BeginChars: 65539 98

StartChar: .notdef
Encoding: 65536 -1 0
Width: 624
Flags: W
LayerCount: 2
Fore
SplineSet
62 0 m 1,0,-1
 62 748 l 1,1,-1
 562 748 l 1,2,-1
 562 0 l 1,3,-1
 62 0 l 1,0,-1
125 62 m 1,4,-1
 500 62 l 1,5,-1
 500 686 l 1,6,-1
 125 686 l 1,7,-1
 125 62 l 1,4,-1
EndSplineSet
EndChar

StartChar: exclam
Encoding: 33 33 3
Width: 624
Flags: W
LayerCount: 2
Fore
SplineSet
247 724 m 1,0,1
 252 749 252 749 273 762 c 0,2,3
 295 773 295 773 315 773 c 0,4,5
 330 773 330 773 345 764 c 0,6,7
 371 750 371 750 375 728 c 2,8,-1
 375 297 l 2,9,10
 373 270 373 270 352 255.5 c 128,-1,11
 331 241 331 241 310.5 240.5 c 128,-1,12
 290 240 290 240 275 250 c 0,13,14
 250 267 250 267 247 293 c 2,15,-1
 247 724 l 1,16,-1
 247 724 l 1,0,1
312 156 m 256,17,18
 342 156 342 156 367.5 132.5 c 128,-1,19
 393 109 393 109 393 75 c 256,20,21
 393 41 393 41 367.5 18 c 128,-1,22
 342 -5 342 -5 312 -5 c 256,23,24
 282 -5 282 -5 257 18 c 128,-1,25
 232 41 232 41 232 75 c 256,26,27
 232 109 232 109 257 132.5 c 128,-1,28
 282 156 282 156 312 156 c 256,17,18
EndSplineSet
EndChar

StartChar: quotedbl
Encoding: 34 34 4
Width: 624
Flags: W
LayerCount: 2
Fore
SplineSet
372 718 m 1,0,1
 377 743 377 743 397.5 755.5 c 128,-1,2
 418 768 418 768 436 768 c 0,3,4
 455 768 455 768 472 758 c 0,5,6
 494 746 494 746 500 722 c 1,7,-1
 500 543 l 2,8,9
 498 516 498 516 476.5 501 c 128,-1,10
 455 486 455 486 436 486 c 0,11,12
 415 487 415 487 400 500 c 0,13,14
 374 517 374 517 372 539 c 2,15,-1
 372 718 l 1,16,-1
 372 718 l 1,0,1
121 719 m 1,17,18
 126 744 126 744 146.5 756.5 c 128,-1,19
 167 769 167 769 185 769 c 0,20,21
 207 770 207 770 220 761 c 0,22,23
 242 744 242 744 249 723 c 1,24,-1
 249 544 l 2,25,26
 247 517 247 517 225.5 502 c 128,-1,27
 204 487 204 487 185 487 c 0,28,29
 160 491 160 491 147 502 c 0,30,31
 122 519 122 519 121 541 c 2,32,-1
 121 719 l 1,33,-1
 121 719 l 1,17,18
EndSplineSet
EndChar

StartChar: numbersign
Encoding: 35 35 5
Width: 624
Flags: W
LayerCount: 2
Fore
SplineSet
408 717 m 0,0,1
 414 744 414 744 431 756 c 128,-1,2
 448 768 448 768 465.5 765.5 c 128,-1,3
 483 763 483 763 497 747.5 c 128,-1,4
 511 732 511 732 510 704 c 0,5,6
 504 663 504 663 498.5 622.5 c 128,-1,7
 493 582 493 582 487 542 c 1,8,-1
 548 542 l 1,9,10
 572 535 572 535 583 520 c 128,-1,11
 594 505 594 505 593.5 489 c 128,-1,12
 593 473 593 473 580.5 459 c 128,-1,13
 568 445 568 445 544 440 c 1,14,-1
 473 440 l 1,15,16
 467 400 467 400 462.5 361 c 128,-1,17
 458 322 458 322 452 283 c 1,18,-1
 514 283 l 1,19,20
 538 276 538 276 549.5 261 c 128,-1,21
 561 246 561 246 560 230.5 c 128,-1,22
 559 215 559 215 546.5 200.5 c 128,-1,23
 534 186 534 186 511 181 c 1,24,-1
 438 181 l 1,25,26
 432 134 432 134 426 87 c 128,-1,27
 420 40 420 40 413 -7 c 1,28,29
 404 -29 404 -29 388 -39.5 c 128,-1,30
 372 -50 372 -50 356.5 -48 c 128,-1,31
 341 -46 341 -46 328 -33 c 128,-1,32
 315 -20 315 -20 312 5 c 1,33,34
 318 49 318 49 324 93 c 128,-1,35
 330 137 330 137 336 181 c 1,36,-1
 230 181 l 1,37,38
 224 134 224 134 217 87 c 128,-1,39
 210 40 210 40 204 -7 c 1,40,41
 195 -29 195 -29 178.5 -39.5 c 128,-1,42
 162 -50 162 -50 146.5 -48 c 128,-1,43
 131 -46 131 -46 118 -33 c 128,-1,44
 105 -20 105 -20 102 5 c 1,45,46
 108 49 108 49 114 93 c 128,-1,47
 120 137 120 137 126 181 c 1,48,-1
 84 181 l 2,49,50
 57 185 57 185 43.5 200.5 c 128,-1,51
 30 216 30 216 30.5 234 c 128,-1,52
 31 252 31 252 45.5 267 c 128,-1,53
 60 282 60 282 87 283 c 2,54,-1
 140 283 l 1,55,56
 146 322 146 322 150.5 361 c 128,-1,57
 155 400 155 400 161 440 c 1,58,-1
 122 440 l 2,59,60
 95 444 95 444 82 459.5 c 128,-1,61
 69 475 69 475 69.5 493 c 128,-1,62
 70 511 70 511 84.5 526 c 128,-1,63
 99 541 99 541 126 542 c 2,64,-1
 175 542 l 1,65,66
 181 586 181 586 186.5 629 c 128,-1,67
 192 672 192 672 199 716 c 0,68,69
 205 743 205 743 222 755 c 128,-1,70
 239 767 239 767 256 764.5 c 128,-1,71
 273 762 273 762 287 746.5 c 128,-1,72
 301 731 301 731 300 703 c 2,73,-1
 277 542 l 1,74,-1
 383 542 l 1,75,76
 389 586 389 586 395.5 629.5 c 128,-1,77
 402 673 402 673 408 717 c 0,0,1
350 283 m 1,78,79
 356 322 356 322 360.5 361 c 128,-1,80
 365 400 365 400 370 440 c 1,81,-1
 263 440 l 1,82,83
 258 400 258 400 253.5 361 c 128,-1,84
 249 322 249 322 244 283 c 1,85,-1
 350 283 l 1,86,-1
 350 283 l 1,78,79
EndSplineSet
EndChar

StartChar: dollar
Encoding: 36 36 6
Width: 624
Flags: W
LayerCount: 2
Fore
SplineSet
61 131 m 1,0,1
 52 150 52 150 49.5 160 c 128,-1,2
 47 170 47 170 51 186 c 128,-1,3
 55 202 55 202 64.5 209 c 128,-1,4
 74 216 74 216 91 215 c 0,5,6
 98 213 98 213 111 204 c 128,-1,7
 124 195 124 195 134 185 c 128,-1,8
 144 175 144 175 171.5 155 c 128,-1,9
 199 135 199 135 215 129 c 2,10,-1
 249 115 l 1,11,-1
 250 358 l 1,12,13
 226 369 226 369 191 385.5 c 128,-1,14
 156 402 156 402 125 426.5 c 128,-1,15
 94 451 94 451 71.5 484 c 128,-1,16
 49 517 49 517 49 559 c 0,17,18
 49 593 49 593 62.5 625 c 128,-1,19
 76 657 76 657 101.5 683 c 128,-1,20
 127 709 127 709 164.5 726.5 c 128,-1,21
 202 744 202 744 250 751 c 1,22,-1
 250 793 l 2,23,24
 250 835 250 835 258.5 867 c 128,-1,25
 267 899 267 899 302 899 c 0,26,27
 336 899 336 899 344.5 869.5 c 128,-1,28
 353 840 353 840 353 800 c 0,29,30
 353 786 353 786 352.5 774 c 128,-1,31
 352 762 352 762 352 748 c 1,32,33
 368 746 368 746 397.5 737 c 128,-1,34
 427 728 427 728 456.5 715 c 128,-1,35
 486 702 486 702 531.5 665.5 c 128,-1,36
 577 629 577 629 577 607 c 0,37,38
 579 591 579 591 561 577.5 c 128,-1,39
 543 564 543 564 521 567 c 1,40,41
 499 577 499 577 473 597 c 128,-1,42
 447 617 447 617 416.5 632.5 c 128,-1,43
 386 648 386 648 350 656 c 1,44,45
 349 601 349 601 350 538.5 c 128,-1,46
 351 476 351 476 350 420 c 1,47,48
 390 405 390 405 430.5 390.5 c 128,-1,49
 471 376 471 376 503.5 352 c 128,-1,50
 536 328 536 328 556.5 295.5 c 128,-1,51
 577 263 577 263 577 219 c 0,52,53
 577 167 577 167 556.5 130.5 c 128,-1,54
 536 94 536 94 503.5 69.5 c 128,-1,55
 471 45 471 45 430.5 31 c 128,-1,56
 390 17 390 17 350 10 c 1,57,58
 350 -11 350 -11 350 -33 c 128,-1,59
 350 -55 350 -55 351 -77 c 1,60,61
 345 -101 345 -101 330.5 -112.5 c 128,-1,62
 316 -124 316 -124 300 -124 c 0,63,64
 278 -124 278 -124 267 -110.5 c 128,-1,65
 256 -97 256 -97 252.5 -77 c 128,-1,66
 249 -57 249 -57 249 -32 c 128,-1,67
 249 -7 249 -7 247 15 c 1,68,-1
 246 16 l 1,69,70
 207 26 207 26 179 37.5 c 128,-1,71
 151 49 151 49 130.5 63 c 128,-1,72
 110 77 110 77 93.5 94 c 128,-1,73
 77 111 77 111 61 131 c 1,0,1
350 327 m 1,74,75
 350 276 350 276 350 215.5 c 128,-1,76
 350 155 350 155 350 105 c 1,77,78
 371 104 371 104 396.5 114.5 c 128,-1,79
 422 125 422 125 451 145 c 0,80,81
 485 176 485 176 486.5 203 c 128,-1,82
 488 230 488 230 472 255 c 0,83,84
 451 281 451 281 425 296 c 128,-1,85
 399 311 399 311 350 327 c 1,74,75
252 657 m 1,86,87
 221 652 221 652 210 648 c 128,-1,88
 199 644 199 644 180 633 c 128,-1,89
 161 622 161 622 150 610.5 c 128,-1,90
 139 599 139 599 136 573 c 0,91,92
 140 531 140 531 174.5 504 c 128,-1,93
 209 477 209 477 251 452 c 1,94,-1
 252 657 l 1,86,87
EndSplineSet
EndChar

StartChar: percent
Encoding: 37 37 7
Width: 624
Flags: W
LayerCount: 2
Fore
SplineSet
493 737 m 1,0,1
 513 753 513 753 534 753 c 0,2,3
 554 753 554 753 568 739.5 c 128,-1,4
 582 726 582 726 582 704 c 0,5,6
 582 693 582 693 576 677 c 0,7,8
 501 571 501 571 476 532 c 128,-1,9
 451 493 451 493 383 395 c 128,-1,10
 315 297 315 297 245.5 198 c 128,-1,11
 176 99 176 99 135 40 c 0,12,13
 125 26 125 26 112 21 c 128,-1,14
 99 16 99 16 89 16 c 0,15,16
 70 16 70 16 55.5 29 c 128,-1,17
 41 42 41 42 41 64 c 0,18,19
 41 81 41 81 52 100 c 0,20,21
 127 206 127 206 179 281.5 c 128,-1,22
 231 357 231 357 299 454.5 c 128,-1,23
 367 552 367 552 436 651.5 c 128,-1,24
 505 751 505 751 493 737 c 1,0,1
436 214 m 0,25,26
 412 214 412 214 392 195 c 128,-1,27
 372 176 372 176 372 150 c 256,28,29
 372 124 372 124 392 105 c 128,-1,30
 412 86 412 86 436 86 c 0,31,32
 458 86 458 86 478 105 c 128,-1,33
 498 124 498 124 498 150 c 256,34,35
 498 176 498 176 478 195 c 128,-1,36
 458 214 458 214 436 214 c 0,25,26
436 308 m 256,37,38
 495 308 495 308 543.5 262.5 c 128,-1,39
 592 217 592 217 592 154 c 0,40,41
 592 89 592 89 543.5 42.5 c 128,-1,42
 495 -4 495 -4 436 -4 c 256,43,44
 377 -4 377 -4 327 42.5 c 128,-1,45
 277 89 277 89 277 156 c 0,46,47
 277 220 277 220 327 264 c 128,-1,48
 377 308 377 308 436 308 c 256,37,38
199 679 m 0,49,50
 175 679 175 679 155 660.5 c 128,-1,51
 135 642 135 642 135 616 c 256,52,53
 135 590 135 590 155 571 c 128,-1,54
 175 552 175 552 199 552 c 0,55,56
 221 552 221 552 241 570.5 c 128,-1,57
 261 589 261 589 261 616 c 256,58,59
 261 642 261 642 241 660.5 c 128,-1,60
 221 679 221 679 199 679 c 0,49,50
199 774 m 256,61,62
 258 774 258 774 306.5 728.5 c 128,-1,63
 355 683 355 683 355 619 c 0,64,65
 355 554 355 554 306 508 c 128,-1,66
 257 462 257 462 199 462 c 256,67,68
 140 462 140 462 90 508 c 128,-1,69
 40 554 40 554 40 619 c 0,70,71
 40 683 40 683 90 728.5 c 128,-1,72
 140 774 140 774 199 774 c 256,61,62
EndSplineSet
EndChar

StartChar: ampersand
Encoding: 38 38 8
Width: 624
Flags: W
LayerCount: 2
Fore
SplineSet
548 71 m 0,0,1
 575 51 575 51 571 29 c 0,2,3
 571 10 571 10 556.5 -4.5 c 128,-1,4
 542 -19 542 -19 516 -19 c 0,5,6
 509 -19 509 -19 505 -17 c 0,7,8
 475 2 475 2 451 32 c 128,-1,9
 427 62 427 62 405 90 c 1,10,11
 364 28 364 28 319.5 3 c 128,-1,12
 275 -22 275 -22 244 -21 c 0,13,14
 197 -21 197 -21 168.5 -4.5 c 128,-1,15
 140 12 140 12 108.5 44.5 c 128,-1,16
 77 77 77 77 56.5 119.5 c 128,-1,17
 36 162 36 162 36 214 c 0,18,19
 36 254 36 254 47.5 285 c 128,-1,20
 59 316 59 316 77.5 341 c 128,-1,21
 96 366 96 366 113 382 c 128,-1,22
 130 398 130 398 154 413 c 1,23,24
 129 450 129 450 115.5 503.5 c 128,-1,25
 102 557 102 557 102 607 c 0,26,27
 102 644 102 644 118.5 673 c 128,-1,28
 135 702 135 702 160.5 722.5 c 128,-1,29
 186 743 186 743 207.5 752.5 c 128,-1,30
 229 762 229 762 246 762 c 0,31,32
 273 756 273 756 295.5 747 c 128,-1,33
 318 738 318 738 340.5 718 c 128,-1,34
 363 698 363 698 380.5 665.5 c 128,-1,35
 398 633 398 633 392 596 c 1,36,37
 392 565 392 565 382.5 533.5 c 128,-1,38
 373 502 373 502 355.5 475 c 128,-1,39
 338 448 338 448 315 426.5 c 128,-1,40
 292 405 292 405 263 391 c 1,41,-1
 338 305 l 2,42,43
 359 281 359 281 365.5 267.5 c 128,-1,44
 372 254 372 254 395 234 c 1,45,46
 427 285 427 285 456 324 c 128,-1,47
 485 363 485 363 496 398 c 0,48,49
 506 415 506 415 519 423 c 128,-1,50
 532 431 532 431 544 431 c 0,51,52
 563 431 563 431 578 416.5 c 128,-1,53
 593 402 593 402 591 383 c 0,54,55
 589 366 589 366 561 327 c 128,-1,56
 533 288 533 288 532.5 286.5 c 128,-1,57
 532 285 532 285 494.5 230.5 c 128,-1,58
 457 176 457 176 456 161 c 1,59,60
 481 126 481 126 497 114 c 128,-1,61
 513 102 513 102 548 71 c 0,0,1
276 92 m 0,62,63
 295 101 295 101 310 118.5 c 128,-1,64
 325 136 325 136 345 154 c 1,65,66
 303 201 303 201 282.5 233 c 128,-1,67
 262 265 262 265 206 331 c 1,68,69
 187 320 187 320 182 312.5 c 128,-1,70
 177 305 177 305 163.5 290.5 c 128,-1,71
 150 276 150 276 141 256.5 c 128,-1,72
 132 237 132 237 132 211 c 0,73,74
 132 182 132 182 144 158.5 c 128,-1,75
 156 135 156 135 171 115 c 128,-1,76
 186 95 186 95 212.5 85.5 c 128,-1,77
 239 76 239 76 244 81 c 1,78,79
 259 81 259 81 276 92 c 0,62,63
186 576 m 0,80,81
 196 536 196 536 203.5 511 c 128,-1,82
 211 486 211 486 237 466 c 1,83,84
 271 486 271 486 285.5 516.5 c 128,-1,85
 300 547 300 547 297 597 c 0,86,87
 295 638 295 638 275 654.5 c 128,-1,88
 255 671 255 671 242 671 c 0,89,90
 227 671 227 671 210.5 657.5 c 128,-1,91
 194 644 194 644 187 622 c 128,-1,92
 180 600 180 600 186 576 c 0,80,81
EndSplineSet
EndChar

StartChar: quotesingle
Encoding: 39 39 9
Width: 624
Flags: W
LayerCount: 2
Fore
SplineSet
249 716 m 1,0,1
 254 743 254 743 268 753 c 0,2,3
 289 765 289 765 312 766 c 0,4,5
 331 765 331 765 350 754 c 0,6,7
 372 743 372 743 376 719 c 2,8,-1
 376 529 l 2,9,10
 378 502 378 502 358 487 c 256,11,12
 338 472 338 472 312 472 c 0,13,14
 290 473 290 473 272 486 c 0,15,16
 251 498 251 498 249 526 c 2,17,-1
 249 716 l 1,18,-1
 249 716 l 1,0,1
EndSplineSet
EndChar

StartChar: parenleft
Encoding: 40 40 10
Width: 624
Flags: W
LayerCount: 2
Fore
SplineSet
443 -27 m 0,0,1
 457 -47 457 -47 457 -66 c 128,-1,2
 457 -85 457 -85 446.5 -97 c 128,-1,3
 436 -109 436 -109 418 -112.5 c 128,-1,4
 400 -116 400 -116 377 -105 c 1,5,6
 362 -91 362 -91 346 -78.5 c 128,-1,7
 330 -66 330 -66 318 -50 c 0,8,9
 264 9 264 9 225 117.5 c 128,-1,10
 186 226 186 226 186 298.5 c 128,-1,11
 186 371 186 371 191.5 396 c 128,-1,12
 197 421 197 421 220 502 c 0,13,14
 232 538 232 538 247 570 c 128,-1,15
 262 602 262 602 279.5 632 c 128,-1,16
 297 662 297 662 317 691.5 c 128,-1,17
 337 721 337 721 358 752 c 1,18,19
 377 767 377 767 395 768 c 128,-1,20
 413 769 413 769 426.5 760 c 128,-1,21
 440 751 440 751 445 732.5 c 128,-1,22
 450 714 450 714 441 692 c 0,23,24
 421 661 421 661 403 635 c 128,-1,25
 385 609 385 609 370 583.5 c 128,-1,26
 355 558 355 558 341 530.5 c 128,-1,27
 327 503 327 503 316 468 c 0,28,29
 287 361 287 361 284.5 319.5 c 128,-1,30
 282 278 282 278 288.5 246 c 128,-1,31
 295 214 295 214 318 147.5 c 128,-1,32
 341 81 341 81 397 15 c 0,33,34
 407 4 407 4 419.5 -6.5 c 128,-1,35
 432 -17 432 -17 443 -27 c 0,0,1
EndSplineSet
EndChar

StartChar: parenright
Encoding: 41 41 11
Width: 624
Flags: W
LayerCount: 2
Fore
SplineSet
190 -29 m 0,0,1
 201 -19 201 -19 213.5 -8.5 c 128,-1,2
 226 2 226 2 236 14 c 0,3,4
 275 75 275 75 311.5 155 c 128,-1,5
 348 235 348 235 346.5 329 c 128,-1,6
 345 423 345 423 321 468 c 1,7,8
 310 502 310 502 295.5 528 c 128,-1,9
 281 554 281 554 266 580 c 128,-1,10
 251 606 251 606 233.5 631.5 c 128,-1,11
 216 657 216 657 195 688 c 1,12,13
 186 710 186 710 191 728.5 c 128,-1,14
 196 747 196 747 209 756.5 c 128,-1,15
 222 766 222 766 240 764.5 c 128,-1,16
 258 763 258 763 277 748 c 1,17,18
 298 717 298 717 318 687.5 c 128,-1,19
 338 658 338 658 355.5 628 c 128,-1,20
 373 598 373 598 388 566 c 128,-1,21
 403 534 403 534 416 498 c 0,22,23
 451 382 451 382 449 327.5 c 128,-1,24
 447 273 447 273 441.5 239.5 c 128,-1,25
 436 206 436 206 408 125.5 c 128,-1,26
 380 45 380 45 315 -51 c 0,27,28
 304 -67 304 -67 287.5 -79.5 c 128,-1,29
 271 -92 271 -92 256 -106 c 1,30,31
 234 -117 234 -117 215.5 -113.5 c 128,-1,32
 197 -110 197 -110 186.5 -98 c 128,-1,33
 176 -86 176 -86 176 -67.5 c 128,-1,34
 176 -49 176 -49 190 -29 c 0,0,1
EndSplineSet
EndChar

StartChar: asterisk
Encoding: 42 42 12
Width: 624
Flags: W
LayerCount: 2
Fore
SplineSet
104 443 m 0,0,1
 84 464 84 464 84 487 c 0,2,3
 84 507 84 507 97 520.5 c 128,-1,4
 110 534 110 534 131 534 c 0,5,6
 146 533 146 533 163 523 c 128,-1,7
 180 513 180 513 196 500 c 128,-1,8
 212 487 212 487 228 472 c 128,-1,9
 244 457 244 457 257 445 c 1,10,11
 257 447 257 447 256.5 449.5 c 128,-1,12
 256 452 256 452 256 455 c 0,13,14
 261 481 261 481 265.5 512.5 c 128,-1,15
 270 544 270 544 271.5 574 c 128,-1,16
 273 604 273 604 286.5 623 c 128,-1,17
 300 642 300 642 322 642 c 0,18,19
 341 642 341 642 356 627.5 c 128,-1,20
 371 613 371 613 371 586 c 0,21,22
 371 542 371 542 365.5 501.5 c 128,-1,23
 360 461 360 461 358 447 c 128,-1,24
 356 433 356 433 357 427 c 128,-1,25
 358 421 358 421 375 436 c 0,26,27
 391 445 391 445 403.5 450.5 c 128,-1,28
 416 456 416 456 433.5 464 c 128,-1,29
 451 472 451 472 469 479 c 128,-1,30
 487 486 487 486 500 486 c 0,31,32
 522 486 522 486 535.5 471 c 128,-1,33
 549 456 549 456 549 437 c 0,34,35
 549 420 549 420 533 404 c 128,-1,36
 517 388 517 388 493.5 374.5 c 128,-1,37
 470 361 470 361 445.5 352 c 128,-1,38
 421 343 421 343 400 333 c 0,39,40
 396 332 396 332 388 332 c 1,41,-1
 436 258 l 2,42,43
 450 241 450 241 450 220 c 256,44,45
 450 199 450 199 436 185.5 c 128,-1,46
 422 172 422 172 402 172 c 0,47,48
 393 172 393 172 374.5 184 c 128,-1,49
 356 196 356 196 343 215.5 c 128,-1,50
 330 235 330 235 313 256 c 128,-1,51
 296 277 296 277 290 296 c 1,52,53
 288 291 288 291 280 281 c 2,54,-1
 182 199 l 2,55,56
 163 188 163 188 146 187 c 0,57,58
 125 187 125 187 112 201.5 c 128,-1,59
 99 216 99 216 99 235 c 0,60,61
 99 246 99 246 104.5 258.5 c 128,-1,62
 110 271 110 271 122 281 c 2,63,-1
 214 358 l 1,64,65
 203 360 203 360 188.5 370.5 c 128,-1,66
 174 381 174 381 159.5 393.5 c 128,-1,67
 145 406 145 406 130.5 419.5 c 128,-1,68
 116 433 116 433 104 443 c 0,0,1
EndSplineSet
EndChar

StartChar: plus
Encoding: 43 43 13
Width: 624
Flags: W
LayerCount: 2
Fore
SplineSet
100 327 m 1,0,1
 73 331 73 331 59.5 346 c 128,-1,2
 46 361 46 361 46 378 c 0,3,4
 46 397 46 397 60.5 412.5 c 128,-1,5
 75 428 75 428 104 430 c 2,6,-1
 256 431 l 1,7,-1
 256 591 l 1,8,9
 262 616 262 616 276 628.5 c 128,-1,10
 290 641 290 641 307 641 c 0,11,12
 323 641 323 641 337.5 629.5 c 128,-1,13
 352 618 352 618 358 594 c 1,14,-1
 358 431 l 1,15,-1
 528 431 l 1,16,17
 552 425 552 425 563 410.5 c 128,-1,18
 574 396 574 396 574 380 c 0,19,20
 574 363 574 363 561.5 349 c 128,-1,21
 549 335 549 335 524 328 c 1,22,-1
 358 328 l 1,23,-1
 358 171 l 2,24,25
 357 142 357 142 341.5 128 c 128,-1,26
 326 114 326 114 307 114 c 0,27,28
 290 114 290 114 275 127 c 128,-1,29
 260 140 260 140 256 167 c 2,30,-1
 256 328 l 1,31,-1
 100 327 l 1,32,-1
 100 327 l 1,0,1
EndSplineSet
EndChar

StartChar: comma
Encoding: 44 44 14
Width: 624
Flags: W
LayerCount: 2
Fore
SplineSet
293 110 m 0,0,1
 268 63 268 63 246 14 c 128,-1,2
 224 -35 224 -35 176 -136 c 0,3,4
 175 -141 175 -141 175 -145.5 c 128,-1,5
 175 -150 175 -150 175 -154 c 0,6,7
 175 -179 175 -179 192.5 -192 c 128,-1,8
 210 -205 210 -205 229 -207 c 256,9,10
 248 -209 248 -209 265.5 -199.5 c 128,-1,11
 283 -190 283 -190 288 -177 c 0,12,13
 313 -130 313 -130 348 -56.5 c 128,-1,14
 383 17 383 17 407 65 c 0,15,16
 413 81 413 81 413 92 c 0,17,18
 413 114 413 114 389 130.5 c 128,-1,19
 365 147 365 147 342 142 c 0,20,21
 310 140 310 140 293 110 c 0,0,1
EndSplineSet
EndChar

StartChar: hyphen
Encoding: 45 45 15
Width: 624
Flags: W
LayerCount: 2
Fore
SplineSet
102 327 m 0,0,1
 75 331 75 331 62 346 c 128,-1,2
 49 361 49 361 49 378 c 256,3,4
 49 395 49 395 63 412.5 c 128,-1,5
 77 430 77 430 106 430 c 0,6,7
 121 430 121 430 156.5 430 c 128,-1,8
 192 430 192 430 247.5 430.5 c 128,-1,9
 303 431 303 431 351.5 431 c 128,-1,10
 400 431 400 431 526 431 c 1,11,12
 550 425 550 425 561 410.5 c 128,-1,13
 572 396 572 396 572 380 c 0,14,15
 572 363 572 363 559.5 349 c 128,-1,16
 547 335 547 335 522 328 c 1,17,18
 438 328 438 328 299.5 327.5 c 128,-1,19
 161 327 161 327 102 327 c 0,0,1
EndSplineSet
EndChar

StartChar: period
Encoding: 46 46 16
Width: 624
Flags: W
LayerCount: 2
Fore
SplineSet
310 179 m 0,0,1
 345 179 345 179 375.5 150.5 c 128,-1,2
 406 122 406 122 406 85 c 0,3,4
 406 46 406 46 375.5 18.5 c 128,-1,5
 345 -9 345 -9 310 -9 c 0,6,7
 274 -9 274 -9 245 18.5 c 128,-1,8
 216 46 216 46 216 85 c 0,9,10
 216 122 216 122 245 150.5 c 128,-1,11
 274 179 274 179 310 179 c 0,0,1
EndSplineSet
EndChar

StartChar: slash
Encoding: 47 47 17
Width: 624
Flags: W
LayerCount: 2
Fore
SplineSet
451 852 m 1,0,1
 471 884 471 884 500 884 c 0,2,3
 519 884 519 884 533.5 870.5 c 128,-1,4
 548 857 548 857 548 834 c 0,5,6
 548 823 548 823 542 807 c 0,7,8
 448 588 448 588 354 372 c 128,-1,9
 260 156 260 156 165 -62 c 0,10,11
 155 -76 155 -76 142.5 -81.5 c 128,-1,12
 130 -87 130 -87 119 -87 c 0,13,14
 100 -87 100 -87 86 -73.5 c 128,-1,15
 72 -60 72 -60 72 -35 c 0,16,17
 72 -31 72 -31 72 -26.5 c 128,-1,18
 72 -22 72 -22 74 -17 c 0,19,20
 168 202 168 202 262 417.5 c 128,-1,21
 356 633 356 633 451 852 c 1,0,1
EndSplineSet
EndChar

StartChar: zero
Encoding: 48 48 18
Width: 711
Flags: W
LayerCount: 2
Fore
SplineSet
349.5 -31 m 128,-1,1
 328 -31 328 -31 306 -29 c 0,2,3
 262 -24 262 -24 232 -12 c 0,4,5
 201 0 201 0 174 16 c 0,6,7
 150 32 150 32 130 56 c 0,8,9
 70 131 70 131 52 234 c 0,10,11
 44 282 44 282 44 331 c 0,12,13
 44 386 44 386 52.5 440.5 c 128,-1,14
 61 495 61 495 82 554 c 0,15,16
 103 606 103 606 139 650 c 0,17,18
 176 697 176 697 227 728 c 0,19,20
 283 760 283 760 370 761 c 0,21,22
 396 761 396 761 420 757 c 0,23,24
 445 753 445 753 460 748 c 0,25,26
 523 723 523 723 566 683 c 0,27,28
 606 643 606 643 627 596 c 0,29,30
 666 505 666 505 667 390 c 0,31,32
 667 336 667 336 660 284 c 1,33,34
 648 235 648 235 626 181 c 0,35,36
 603 133 603 133 569 90 c 0,37,38
 534 44 534 44 481 10 c 0,39,40
 428 -22 428 -22 395 -29 c 1,41,0
 371 -31 371 -31 349.5 -31 c 128,-1,1
192 341 m 0,42,43
 192 338 192 338 192 335 c 1,44,45
 421 490 421 490 492 536 c 1,46,47
 479 556 479 556 448 582 c 1,48,49
 392 612 392 612 373 615 c 0,50,51
 372 615 372 615 371 615 c 0,52,53
 310 609 310 609 277 580 c 1,54,-1
 275 579 l 2,55,56
 243 561 243 561 216 493 c 0,57,58
 192 425 192 425 192 341 c 0,42,43
522 389 m 1,59,60
 396 307 396 307 221 187 c 1,61,62
 231 174 231 174 246 158 c 0,63,64
 284 120 284 120 338 114 c 1,65,66
 387 115 387 115 424 155 c 1,67,68
 483 208 483 208 496 251 c 0,69,-1
 496 252 l 1,70,71
 520 331 520 331 522 389 c 1,59,60
EndSplineSet
EndChar

StartChar: one
Encoding: 49 49 19
Width: 711
Flags: W
LayerCount: 2
Fore
SplineSet
43 25 m 0,0,1
 35 39 35 39 34 57 c 0,2,3
 34 77 34 77 42 92.5 c 128,-1,4
 50 108 50 108 75.5 119.5 c 128,-1,5
 101 131 101 131 163 131 c 0,6,7
 232 131 232 131 307 128 c 1,8,9
 309 190 309 190 309 240.5 c 128,-1,10
 309 291 309 291 306.5 323.5 c 128,-1,11
 304 356 304 356 304 410 c 128,-1,12
 304 464 304 464 306 539 c 1,13,14
 222 476 222 476 191 466 c 2,15,-1
 188 465 l 1,16,17
 180 464 180 464 174 465 c 0,18,19
 143 465 143 465 123.5 484 c 128,-1,20
 104 503 104 503 104 529 c 0,21,22
 104 544 104 544 111 560 c 0,23,24
 115 569 115 569 145 596 c 0,25,26
 177 624 177 624 253 682 c 1,27,-1
 348 748 l 1,28,29
 374 757 374 757 391 757 c 0,30,31
 426 757 426 757 448 737 c 0,32,33
 464 723 464 723 472 697 c 1,34,35
 467 581 467 581 467.5 499 c 128,-1,36
 468 417 468 417 472 361 c 0,37,38
 479 252 479 252 472 133 c 1,39,40
 521 131 521 131 550 134 c 1,41,-1
 551 134 l 2,42,43
 557 134 557 134 563 134 c 0,44,45
 602 134 602 134 624 129 c 128,-1,46
 646 124 646 124 655 111 c 0,47,48
 668 94 668 94 671 73 c 0,49,50
 671 71 671 71 671 68 c 0,51,52
 671 45 671 45 641 12 c 1,53,54
 629 2 629 2 611 -1.5 c 128,-1,55
 593 -5 593 -5 563 -5 c 0,56,57
 531 -5 531 -5 483 -1 c 1,58,-1
 416 -1 l 2,59,60
 347 -1 347 -1 233 5 c 0,61,62
 135 6 135 6 80 4 c 1,63,64
 55 5 55 5 43 25 c 0,0,1
EndSplineSet
EndChar

StartChar: two
Encoding: 50 50 20
Width: 711
Flags: W
LayerCount: 2
Fore
SplineSet
259 150 m 1,0,-1
 495 150 l 1,1,-1
 564 151 l 2,2,3
 599 151 599 151 616 120 c 0,4,5
 629 96 629 96 630 69 c 2,6,-1
 630 66 l 1,7,8
 617 28 617 28 614 20.5 c 128,-1,9
 611 13 611 13 606 10 c 0,10,11
 597 4 597 4 574.5 0.5 c 128,-1,12
 552 -3 552 -3 500 -5 c 2,13,-1
 500 -5 l 1,14,-1
 158 -5 l 1,15,16
 120 -1 120 -1 101 23 c 0,17,18
 86 41 86 41 84 74 c 1,19,20
 95 120 95 120 102.5 155 c 128,-1,21
 110 190 110 190 134 228.5 c 128,-1,22
 158 267 158 267 181.5 292 c 128,-1,23
 205 317 205 317 239 344 c 0,24,25
 269 369 269 369 302 395 c 128,-1,26
 335 421 335 421 373.5 443.5 c 128,-1,27
 412 466 412 466 436 493 c 0,28,29
 460 521 460 521 461 559 c 0,30,31
 461 568 461 568 457 576 c 0,32,33
 454 583 454 583 450 592 c 0,34,35
 441 610 441 610 426 621 c 128,-1,36
 411 632 411 632 399 634 c 0,37,38
 344 634 344 634 296 607 c 128,-1,39
 248 580 248 580 205 540 c 1,40,41
 180 522 180 522 151 522.5 c 128,-1,42
 122 523 122 523 103 542 c 128,-1,43
 84 561 84 561 84 587 c 128,-1,44
 84 613 84 613 99 637 c 1,45,46
 125 662 125 662 154 685 c 0,47,48
 215 734 215 734 297 756 c 0,49,50
 340 768 340 768 389 768 c 128,-1,51
 438 768 438 768 484 749 c 0,52,53
 527 731 527 731 555 699.5 c 128,-1,54
 583 668 583 668 599.5 625 c 128,-1,55
 616 582 616 582 616 532 c 0,56,57
 616 514 616 514 612 496 c 0,58,59
 597 438 597 438 566.5 401.5 c 128,-1,60
 536 365 536 365 498 339 c 2,61,-1
 421 294 l 2,62,63
 387 274 387 274 360 250 c 2,64,-1
 297 193 l 2,65,66
 277 175 277 175 259 150 c 1,0,-1
EndSplineSet
EndChar

StartChar: three
Encoding: 51 51 21
Width: 711
Flags: W
LayerCount: 2
Fore
SplineSet
188 19 m 0,0,1
 125 50 125 50 84 90 c 1,2,3
 65 114 65 114 65 141.5 c 128,-1,4
 65 169 65 169 85.5 187 c 128,-1,5
 106 205 106 205 135 205 c 2,6,-1
 137 205 l 1,7,8
 151 203 151 203 179 190 c 0,9,10
 209 177 209 177 223.5 165 c 128,-1,11
 238 153 238 153 264.5 140.5 c 128,-1,12
 291 128 291 128 335 125 c 0,13,14
 367 125 367 125 393 137 c 0,15,16
 444 159 444 159 464 211 c 0,17,18
 474 236 474 236 474 260 c 128,-1,19
 474 284 474 284 456 298 c 0,20,21
 434 315 434 315 401 325.5 c 128,-1,22
 368 336 368 336 331.5 340.5 c 128,-1,23
 295 345 295 345 268 345 c 2,24,-1
 264 345 l 1,25,26
 225 353 225 353 207 372 c 128,-1,27
 189 391 189 391 189 413 c 128,-1,28
 189 435 189 435 209 453.5 c 128,-1,29
 229 472 229 472 267 480 c 1,30,31
 326 485 326 485 374 500 c 0,32,33
 425 516 425 516 442 541 c 1,34,-1
 443 564 l 1,35,-1
 438 586 l 2,36,37
 435 598 435 598 412 604 c 0,38,39
 387 611 387 611 352 611 c 128,-1,40
 317 611 317 611 281.5 605.5 c 128,-1,41
 246 600 246 600 212 584 c 0,42,43
 196 574 196 574 181 566 c 0,44,45
 167 557 167 557 147 557 c 0,46,47
 117 557 117 557 96.5 579.5 c 128,-1,48
 76 602 76 602 76 640 c 2,49,-1
 76 642 l 1,50,51
 81 673 81 673 105 693 c 0,52,53
 125 710 125 710 149 721.5 c 128,-1,54
 173 733 173 733 214 744 c 0,55,56
 258 755 258 755 287 755.5 c 128,-1,57
 316 756 316 756 330 756 c 2,58,-1
 338 756 l 2,59,60
 455 756 455 756 526 711 c 0,61,62
 560 687 560 687 579 650.5 c 128,-1,63
 598 614 598 614 598 566 c 0,64,65
 598 557 598 557 597 539 c 0,66,67
 594 494 594 494 558 451 c 0,68,69
 546 436 546 436 527 422 c 1,70,71
 594 377 594 377 619 312 c 0,72,73
 630 283 630 283 631 249 c 0,74,75
 631 199 631 199 607 152 c 128,-1,76
 583 105 583 105 546.5 69 c 128,-1,77
 510 33 510 33 455 10 c 0,78,79
 400 -13 400 -13 343 -12 c 0,80,81
 338 -12 338 -12 333 -13 c 0,82,83
 261 -12 261 -12 188 19 c 0,0,1
EndSplineSet
EndChar

StartChar: four
Encoding: 52 52 22
Width: 711
Flags: W
LayerCount: 2
Fore
SplineSet
242 351 m 1,0,1
 256 350 256 350 271 351 c 2,2,-1
 342 352 l 1,3,-1
 342 431 l 1,4,5
 352 465 352 465 373 482 c 128,-1,6
 394 499 394 499 423 499 c 128,-1,7
 452 499 452 499 475.5 484 c 128,-1,8
 499 469 499 469 509 435 c 1,9,-1
 509 350 l 1,10,-1
 598 350 l 1,11,12
 664 327 664 327 663 276 c 0,13,14
 663 250 663 250 645 230 c 128,-1,15
 627 210 627 210 593 202 c 1,16,-1
 556 202 l 2,17,18
 543 202 543 202 509 202 c 1,19,-1
 509 39 l 1,20,-1
 509 38 l 2,21,22
 507 4 507 4 482 -15 c 0,23,24
 457 -36 457 -36 425.5 -36 c 128,-1,25
 394 -36 394 -36 371 -18 c 0,26,27
 348 0 348 0 342 36 c 1,28,-1
 342 213 l 1,29,30
 278 214 278 214 241 216 c 128,-1,31
 204 218 204 218 139 226 c 1,32,-1
 136 227 l 2,33,34
 74 257 74 257 74 302 c 0,35,36
 74 308 74 308 75 314 c 0,37,38
 96 423 96 423 161 500 c 1,39,40
 203 561 203 561 356 727 c 1,41,42
 387 756 387 756 407 760 c 0,43,44
 428 765 428 765 454.5 765.5 c 128,-1,45
 481 766 481 766 502 749 c 0,46,47
 523 733 523 733 523 706 c 0,48,49
 523 701 523 701 522 697 c 0,50,51
 515 647 515 647 461 603 c 0,52,53
 415 565 415 565 312 441 c 0,54,55
 268 385 268 385 242 351 c 1,0,1
EndSplineSet
EndChar

StartChar: five
Encoding: 53 53 23
Width: 711
Flags: W
LayerCount: 2
Fore
SplineSet
244 607 m 1,0,-1
 248 502 l 1,1,2
 289 509 289 509 331 509 c 0,3,4
 407 509 407 509 468 487 c 0,5,6
 528 466 528 466 566 429.5 c 128,-1,7
 604 393 604 393 624 347.5 c 128,-1,8
 644 302 644 302 644 253 c 128,-1,9
 644 204 644 204 623 157.5 c 128,-1,10
 602 111 602 111 564 72.5 c 128,-1,11
 526 34 526 34 465 10 c 0,12,13
 404 -14 404 -14 335.5 -14 c 128,-1,14
 267 -14 267 -14 205 4 c 0,15,16
 149 6 149 6 100 9 c 1,17,18
 72 54 72 54 72 103 c 0,19,20
 72 142 72 142 92 168 c 0,21,22
 112 189 112 189 146 189 c 0,23,24
 162 189 162 189 179 183 c 1,25,26
 215 162 215 162 251.5 150.5 c 128,-1,27
 288 139 288 139 325 139 c 0,28,29
 394 139 394 139 441 173 c 0,30,31
 463 189 463 189 476 211 c 128,-1,32
 489 233 489 233 489 260 c 0,33,34
 489 308 489 308 436 333 c 0,35,36
 411 345 411 345 381 351 c 128,-1,37
 351 357 351 357 327 357 c 0,38,39
 283 357 283 357 239 346 c 0,40,41
 234 343 234 343 229 338.5 c 128,-1,42
 224 334 224 334 215 327 c 0,43,44
 194 311 194 311 168 312 c 0,45,46
 142 312 142 312 120 331 c 0,47,48
 98 350 98 350 94 387 c 1,49,50
 91 448 91 448 90 507 c 128,-1,51
 89 566 89 566 87 624 c 1,52,53
 68 644 68 644 67 670 c 0,54,55
 67 671 67 671 67 672 c 0,56,57
 67 699 67 699 88 721.5 c 128,-1,58
 109 744 109 744 148 744 c 0,59,60
 158 744 158 744 184 745 c 0,61,62
 535 751 535 751 536 751 c 2,63,-1
 539 751 l 1,64,65
 574 743 574 743 590 723.5 c 128,-1,66
 606 704 606 704 606 680.5 c 128,-1,67
 606 657 606 657 588 638 c 128,-1,68
 570 619 570 619 536 611 c 1,69,70
 455 609 455 609 382.5 609 c 128,-1,71
 310 609 310 609 244 607 c 1,0,-1
EndSplineSet
EndChar

StartChar: six
Encoding: 54 54 24
Width: 711
Flags: W
LayerCount: 2
Fore
SplineSet
325 546 m 0,0,1
 288 503 288 503 261 457 c 1,2,3
 321 478 321 478 382.5 478 c 128,-1,4
 444 478 444 478 495 463 c 0,5,6
 543 448 543 448 576.5 418 c 128,-1,7
 610 388 610 388 628.5 345 c 128,-1,8
 647 302 647 302 647 246 c 128,-1,9
 647 190 647 190 628.5 143 c 128,-1,10
 610 96 610 96 575 64 c 0,11,12
 501 -2 501 -2 372 -2 c 0,13,14
 300 -2 300 -2 233 21 c 0,15,16
 168 44 168 44 132 90 c 0,17,18
 114 113 114 113 103 128 c 0,19,20
 83 156 83 156 74 193 c 0,21,22
 70 210 70 210 63 237 c 0,23,24
 59 259 59 259 59 283 c 0,25,26
 59 346 59 346 79 411.5 c 128,-1,27
 99 477 99 477 133.5 539 c 128,-1,28
 168 601 168 601 219 656 c 0,29,30
 272 711 272 711 331 755 c 1,31,32
 361 776 361 776 394.5 776.5 c 128,-1,33
 428 777 428 777 451 757 c 0,34,35
 474 738 474 738 474 711 c 128,-1,36
 474 684 474 684 449 659 c 1,37,38
 383 612 383 612 325 546 c 0,0,1
296.5 159.5 m 128,-1,40
 331 145 331 145 369 145 c 0,41,42
 417 145 417 145 441.5 157 c 128,-1,43
 466 169 466 169 478 185 c 0,44,45
 494 208 494 208 494 244 c 0,46,47
 494 292 494 292 462 312 c 0,48,49
 432 331 432 331 386 331.5 c 128,-1,50
 340 332 340 332 297 312 c 0,51,52
 255 293 255 293 223 259 c 0,53,54
 218 253 218 253 212 249 c 0,55,56
 213 245 213 245 217 237 c 128,-1,57
 221 229 221 229 225 217 c 0,58,39
 262 174 262 174 296.5 159.5 c 128,-1,40
EndSplineSet
EndChar

StartChar: seven
Encoding: 55 55 25
Width: 711
Flags: W
LayerCount: 2
Fore
SplineSet
523 437 m 0,0,1
 390 232 390 232 366 26 c 1,2,3
 339 -29 339 -29 282 -29 c 0,4,5
 255 -29 255 -29 232 -9 c 0,6,7
 208 9 208 9 204 43 c 1,8,9
 221 190 221 190 297 353 c 0,10,11
 333 430 333 430 373 492 c 128,-1,12
 413 554 413 554 450 598 c 1,13,-1
 103 598 l 1,14,15
 66 603 66 603 47.5 624.5 c 128,-1,16
 29 646 29 646 29 672 c 128,-1,17
 29 698 29 698 49 720.5 c 128,-1,18
 69 743 69 743 107 744 c 2,19,-1
 108 744 l 1,20,-1
 620 744 l 1,21,22
 683 729 683 729 683 676 c 0,23,24
 683 662 683 662 674 640 c 1,25,-1
 638 598 l 2,26,27
 583 534 583 534 523 437 c 0,0,1
EndSplineSet
EndChar

StartChar: eight
Encoding: 56 56 26
Width: 711
Flags: W
LayerCount: 2
Fore
SplineSet
127 469 m 0,0,1
 88 523 88 523 88 593 c 0,2,3
 88 645 88 645 115.5 680 c 128,-1,4
 143 715 143 715 185 735 c 0,5,6
 232 756 232 756 286 764 c 0,7,8
 340 773 340 773 387 773 c 0,9,10
 490 773 490 773 558 738 c 0,11,12
 593 718 593 718 616 685 c 128,-1,13
 639 652 639 652 639 607.5 c 128,-1,14
 639 563 639 563 627 530 c 0,15,16
 604 466 604 466 539 420 c 0,17,18
 519 407 519 407 495 394 c 1,19,20
 516 383 516 383 536 370 c 0,21,22
 610 319 610 319 642 260 c 0,23,24
 660 227 660 227 660 188 c 128,-1,25
 660 149 660 149 639 114 c 128,-1,26
 618 79 618 79 586 51.5 c 128,-1,27
 554 24 554 24 513 5 c 0,28,29
 469 -14 469 -14 429 -18 c 0,30,31
 373 -27 373 -27 320 -27 c 128,-1,32
 267 -27 267 -27 218 -13 c 0,33,34
 169 0 169 0 122 33 c 0,35,36
 79 62 79 62 68 102 c 0,37,38
 58 141 58 141 50 192 c 1,39,40
 60 232 60 232 69.5 266.5 c 128,-1,41
 79 301 79 301 114 334 c 0,42,43
 137 359 137 359 166 378 c 0,44,45
 182 387 182 387 199 397 c 1,46,47
 156 429 156 429 127 469 c 0,0,1
208 180 m 128,-1,49
 209 171 209 171 211 164 c 0,50,51
 245 117 245 117 304 113 c 0,52,53
 322 112 322 112 341.5 112 c 128,-1,54
 361 112 361 112 388 117 c 0,55,56
 445 128 445 128 480 165 c 0,57,58
 496 182 496 182 503 208 c 1,59,60
 496 236 496 236 438 276 c 0,61,62
 411 295 411 295 385.5 309.5 c 128,-1,63
 360 324 360 324 340 334 c 1,64,65
 297 309 297 309 268 288.5 c 128,-1,66
 239 268 239 268 214 232 c 0,67,68
 212 224 212 224 209.5 215.5 c 128,-1,69
 207 207 207 207 205 199 c 0,70,48
 207 189 207 189 208 180 c 128,-1,49
480.5 598 m 128,-1,72
 480 602 480 602 479 604 c 0,73,74
 461 621 461 621 437 627 c 128,-1,75
 413 633 413 633 387 633 c 0,76,77
 334 633 334 633 292 619 c 0,78,79
 272 612 272 612 259 602.5 c 128,-1,80
 246 593 246 593 243 583 c 0,81,82
 244 576 244 576 245 569 c 128,-1,83
 246 562 246 562 247 555 c 0,84,85
 269 524 269 524 295.5 501 c 128,-1,86
 322 478 322 478 352 458 c 1,87,88
 388 478 388 478 419.5 501 c 128,-1,89
 451 524 451 524 477 559 c 0,90,91
 479 566 479 566 480 573.5 c 128,-1,92
 481 581 481 581 482 588 c 0,93,71
 481 594 481 594 480.5 598 c 128,-1,72
EndSplineSet
EndChar

StartChar: nine
Encoding: 57 57 27
Width: 711
Flags: W
LayerCount: 2
Fore
SplineSet
290 -34 m 1,0,1
 273 -38 273 -38 262 -37 c 0,2,3
 224 -37 224 -37 200 -17 c 0,4,5
 176 1 176 1 176 27 c 0,6,7
 176 60 176 60 214 84 c 2,8,-1
 216 86 l 1,9,10
 308 122 308 122 374 177 c 0,11,12
 419 215 419 215 450 261 c 1,13,14
 400 249 400 249 350 249 c 0,15,16
 272 249 272 249 213 271 c 0,17,18
 157 293 157 293 123 328 c 128,-1,19
 89 363 89 363 72 405.5 c 128,-1,20
 55 448 55 448 55 494 c 128,-1,21
 55 540 55 540 74.5 588 c 128,-1,22
 94 636 94 636 132.5 674.5 c 128,-1,23
 171 713 171 713 234 737 c 0,24,25
 298 761 298 761 380 761 c 0,26,27
 419 761 419 761 453 751 c 0,28,29
 520 736 520 736 559 707 c 0,30,31
 631 652 631 652 650 558 c 0,32,33
 658 514 658 514 659 464 c 2,34,-1
 659 464 l 1,35,36
 659 384 659 384 636.5 309.5 c 128,-1,37
 614 235 614 235 570 171 c 0,38,39
 473 40 473 40 290 -34 c 1,0,1
507 439 m 0,40,41
 507 440 507 440 507 440.5 c 128,-1,42
 507 441 507 441 507 442 c 2,43,-1
 507 463 l 2,44,45
 507 535 507 535 479 574 c 0,46,47
 447 618 447 618 373 618 c 0,48,49
 339 618 339 618 308.5 608 c 128,-1,50
 278 598 278 598 254.5 581 c 128,-1,51
 231 564 231 564 217.5 540 c 128,-1,52
 204 516 204 516 204 490 c 0,53,54
 204 456 204 456 231 432 c 0,55,56
 280 393 280 393 349 393 c 0,57,58
 392 393 392 393 434 407 c 0,59,60
 507 431 507 431 507 439 c 0,40,41
EndSplineSet
EndChar

StartChar: colon
Encoding: 58 58 28
Width: 624
Flags: W
LayerCount: 2
Fore
SplineSet
314 212 m 128,-1,1
 360 212 360 212 396 177 c 0,2,3
 433 142 433 142 433 93 c 128,-1,4
 433 44 433 44 396 10 c 128,-1,5
 359 -24 359 -24 314 -24 c 128,-1,6
 269 -24 269 -24 231 10 c 0,7,8
 194 44 194 44 194 93 c 128,-1,9
 194 142 194 142 231 177 c 128,-1,0
 268 212 268 212 314 212 c 128,-1,1
312 593 m 128,-1,11
 358 593 358 593 396 557 c 0,12,13
 433 521 433 521 433 471 c 128,-1,14
 433 421 433 421 395 388 c 0,15,16
 358 354 358 354 312 354 c 128,-1,17
 266 354 266 354 229 388 c 128,-1,18
 192 422 192 422 192 471 c 0,19,20
 192 521 192 521 229 557 c 128,-1,10
 266 593 266 593 312 593 c 128,-1,11
EndSplineSet
EndChar

StartChar: semicolon
Encoding: 59 59 29
Width: 624
Flags: W
LayerCount: 2
Fore
SplineSet
276 146 m 0,0,1
 251 99 251 99 228.5 50 c 128,-1,2
 206 1 206 1 159 -100 c 0,3,4
 158 -105 158 -105 157.5 -109.5 c 128,-1,5
 157 -114 157 -114 157 -117 c 0,6,7
 157 -142 157 -142 174.5 -155.5 c 128,-1,8
 192 -169 192 -169 211 -171 c 256,9,10
 230 -173 230 -173 248 -163.5 c 128,-1,11
 266 -154 266 -154 271 -141 c 0,12,13
 296 -94 296 -94 331 -20 c 128,-1,14
 366 54 366 54 390 101 c 0,15,16
 396 117 396 117 396 129 c 0,17,18
 396 151 396 151 371.5 167.5 c 128,-1,19
 347 184 347 184 325 179 c 0,20,21
 293 176 293 176 276 146 c 0,0,1
328 591 m 0,22,23
 368 592 368 592 402 559 c 0,24,25
 437 526 437 526 436 483 c 0,26,27
 435 435 435 435 402 407 c 0,28,29
 362 374 362 374 328 376 c 0,30,31
 287 377 287 377 256 407 c 0,32,33
 226 436 226 436 224 483 c 0,34,35
 223 524 223 524 256 559 c 0,36,37
 287 590 287 590 328 591 c 0,22,23
EndSplineSet
EndChar

StartChar: less
Encoding: 60 60 30
Width: 624
Flags: W
LayerCount: 2
Fore
SplineSet
513 104 m 2,0,1
 543 104 543 104 563.5 123.5 c 128,-1,2
 584 143 584 143 584 171 c 128,-1,3
 584 199 584 199 567 223 c 0,4,5
 561 234 561 234 531 249 c 128,-1,6
 501 264 501 264 422.5 296 c 128,-1,7
 344 328 344 328 253 377 c 1,8,9
 533 517 533 517 562 546 c 1,10,11
 584 571 584 571 584 599 c 0,12,13
 584 631 584 631 564 651 c 0,14,15
 550 665 550 665 516 671 c 0,16,17
 515 671 515 671 513 672 c 0,18,19
 497 672 497 672 455 657 c 1,20,21
 438 646 438 646 410 630 c 128,-1,22
 382 614 382 614 260.5 548.5 c 128,-1,23
 139 483 139 483 104 460 c 0,24,25
 79 443 79 443 74.5 438.5 c 128,-1,26
 70 434 70 434 69.5 432.5 c 0,27,-1
 69 431 l 0,28,29
 43 407 43 407 43 376.5 c 128,-1,30
 43 346 43 346 71 318 c 1,31,32
 105 293 105 293 445 125 c 0,33,34
 462 117 462 117 510 104 c 1,35,-1
 513 104 l 2,0,1
EndSplineSet
EndChar

StartChar: equal
Encoding: 61 61 31
Width: 624
Flags: W
LayerCount: 2
Fore
SplineSet
590 491 m 0,0,1
 590 448 590 448 561 428 c 0,2,3
 535 410 535 410 497 410 c 2,4,-1
 125 410 l 2,5,6
 87 410 87 410 61 428 c 0,7,8
 31 448 31 448 31 491 c 2,9,-1
 31 492 l 1,10,11
 35 518 35 518 47 531 c 0,12,13
 68 560 68 560 125 560 c 2,14,-1
 497 560 l 2,15,16
 554 560 554 560 574 529 c 0,17,18
 590 504 590 504 590 491 c 0,0,1
584 284 m 0,19,20
 584 238 584 238 557 218 c 128,-1,21
 530 198 530 198 490 198 c 2,22,-1
 124 197 l 2,23,24
 83 197 83 197 57 217 c 128,-1,25
 31 237 31 237 31 272 c 128,-1,26
 31 307 31 307 61 328 c 0,27,28
 87 346 87 346 124 347 c 2,29,-1
 490 348 l 2,30,31
 567 348 567 348 583 299 c 2,32,-1
 584 296 l 1,33,34
 584 289 584 289 584 284 c 0,19,20
EndSplineSet
EndChar

StartChar: greater
Encoding: 62 62 32
Width: 624
Flags: W
LayerCount: 2
Fore
SplineSet
114 104 m 2,0,1
 84 104 84 104 63 124 c 0,2,3
 43 143 43 143 43 171 c 128,-1,4
 43 199 43 199 60 223 c 0,5,6
 66 234 66 234 96 249 c 128,-1,7
 126 264 126 264 204 296 c 128,-1,8
 282 328 282 328 374 377 c 1,9,10
 94 517 94 517 65 546 c 1,11,12
 43 571 43 571 43 599 c 0,13,14
 43 631 43 631 63 651 c 0,15,16
 77 665 77 665 111 671 c 0,17,18
 112 671 112 671 113 672 c 0,19,20
 129 672 129 672 172 657 c 1,21,22
 189 646 189 646 217 630 c 128,-1,23
 245 614 245 614 367 548 c 0,24,25
 488 483 488 483 523 460 c 0,26,27
 548 443 548 443 552 439 c 0,28,29
 556 434 556 434 557 433 c 128,-1,30
 558 432 558 432 558 431 c 0,31,32
 584 407 584 407 584 376 c 128,-1,33
 584 345 584 345 556 318 c 1,34,35
 522 293 522 293 182 125 c 0,36,37
 165 117 165 117 116 104 c 1,38,-1
 114 104 l 2,0,1
EndSplineSet
EndChar

StartChar: question
Encoding: 63 63 33
Width: 624
Flags: W
LayerCount: 2
Fore
SplineSet
362 262 m 0,0,1
 359 251 359 251 359 243 c 128,-1,2
 359 235 359 235 362 229 c 0,3,4
 365 222 365 222 365 214 c 0,5,6
 365 189 365 189 337 173 c 1,7,8
 364 167 364 167 386 146 c 0,9,10
 418 117 418 117 418 74 c 128,-1,11
 418 31 418 31 386 3 c 0,12,13
 354 -26 354 -26 316 -26 c 128,-1,14
 278 -26 278 -26 245 3 c 0,15,16
 213 31 213 31 213 74 c 128,-1,17
 213 117 213 117 245 146 c 0,18,19
 261 161 261 161 279 168 c 1,20,21
 270 171 270 171 260 175 c 0,22,23
 228 193 228 193 221 225 c 0,24,25
 219 236 219 236 219 252 c 128,-1,26
 219 268 219 268 221 280 c 128,-1,27
 223 292 223 292 223 296 c 0,28,29
 223 307 223 307 244 351 c 1,30,31
 263 370 263 370 281 394 c 0,32,33
 312 438 312 438 337 463 c 128,-1,34
 362 488 362 488 379 517 c 128,-1,35
 396 546 396 546 405 568 c 0,36,37
 408 576 408 576 408 585 c 0,38,39
 408 593 408 593 406 601 c 0,40,41
 400 618 400 618 372 638 c 0,42,43
 365 640 365 640 361 642 c 0,44,45
 343 645 343 645 328 645 c 0,46,47
 289 645 289 645 262 626 c 0,48,49
 225 600 225 600 222 554 c 2,50,-1
 221 547 l 1,51,-1
 216 541 l 2,52,53
 190 511 190 511 149 512 c 0,54,55
 122 512 122 512 104 525 c 0,56,57
 82 541 82 541 75 569 c 0,58,59
 74 576 74 576 74 583 c 0,60,61
 74 605 74 605 87 627 c 1,62,63
 102 672 102 672 133 706 c 0,64,65
 163 739 163 739 212 758 c 0,66,67
 282 785 282 785 356 785 c 0,68,69
 383 785 383 785 404 781 c 0,70,71
 443 772 443 772 481 740 c 128,-1,72
 519 708 519 708 542 652 c 0,73,74
 555 621 555 621 555 590 c 0,75,76
 555 546 555 546 537 507 c 0,77,78
 523 477 523 477 503 448 c 0,79,80
 438 357 438 357 412 331 c 0,81,82
 398 317 398 317 382 293 c 1,83,-1
 379 291 l 2,84,85
 367 283 367 283 362 262 c 0,0,1
EndSplineSet
EndChar

StartChar: at
Encoding: 64 64 34
Width: 624
Flags: W
LayerCount: 2
Fore
SplineSet
460 148 m 0,0,-1
 461 148 l 0,1,2
 493 148 493 148 511 128 c 0,3,4
 529 107 529 107 531 82 c 0,5,6
 531 80 531 80 531 77 c 0,7,8
 531 33 531 33 466 11 c 0,9,10
 412 -8 412 -8 379 -17 c 0,11,12
 339 -27 339 -27 306 -27 c 0,13,14
 206 -27 206 -27 175 4 c 1,15,16
 129 35 129 35 104 68 c 0,17,18
 69 111 69 111 43 193 c 0,19,20
 25 250 25 250 25 324 c 0,21,22
 25 439 25 439 65 532 c 0,23,24
 99 614 99 614 147 671 c 1,25,26
 193 739 193 739 280 769 c 1,27,28
 322 779 322 779 356 779 c 0,29,30
 400 779 400 779 433 763 c 0,31,32
 489 735 489 735 526 673 c 0,33,34
 563 612 563 612 574 562 c 1,35,36
 596 498 596 498 599 419 c 1,37,38
 596 382 596 382 587 333 c 1,39,40
 573 291 573 291 555 258 c 0,41,42
 534 221 534 221 489 198 c 0,43,44
 444 176 444 176 420 167 c 0,45,46
 365 146 365 146 320 145 c 0,47,48
 297 145 297 145 268 150 c 1,49,50
 237 157 237 157 215 186 c 0,51,52
 196 212 196 212 183 251 c 128,-1,53
 170 290 170 290 170 338 c 0,54,55
 170 343 170 343 170 347 c 0,56,57
 170 402 170 402 187 444 c 0,58,59
 223 532 223 532 270 547 c 0,60,61
 309 559 309 559 340 560 c 1,62,63
 374 558 374 558 393 554 c 0,64,65
 413 549 413 549 423 539 c 0,66,67
 441 521 441 521 443 480 c 0,68,69
 445 449 445 449 448 431 c 0,70,71
 450 412 450 412 454 369 c 1,72,73
 453 344 453 344 453 327 c 1,74,75
 455 333 455 333 462 348 c 0,76,77
 468 363 468 363 469 375 c 128,-1,78
 470 387 470 387 475 414 c 0,79,80
 475 421 475 421 476 428 c 0,81,82
 476 474 476 474 456 528 c 0,83,84
 437 582 437 582 413 606 c 1,85,86
 392 634 392 634 378 638 c 0,87,88
 345 648 345 648 310 642 c 0,89,90
 277 632 277 632 244 590 c 1,91,92
 207 547 207 547 176 458 c 0,93,94
 160 406 160 406 159 345 c 2,95,-1
 159 344 l 2,96,97
 159 340 159 340 159 336 c 0,98,99
 159 274 159 274 176 211 c 0,100,101
 190 168 190 168 223 140 c 1,102,103
 244 119 244 119 284 109 c 0,104,105
 295 108 295 108 305 108 c 0,106,107
 328 108 328 108 346 114 c 0,108,109
 381 127 381 127 417 137 c 0,110,111
 453 148 453 148 460 148 c 0,0,-1
282 321 m 0,112,113
 282 311 282 311 288 292 c 128,-1,114
 294 273 294 273 298 266 c 1,115,116
 305 265 305 265 316 265 c 0,117,118
 331 269 331 269 338 273 c 0,119,120
 341 278 341 278 337 307 c 128,-1,121
 333 336 333 336 333 349 c 128,-1,122
 333 362 333 362 335 373 c 0,123,124
 335 395 335 395 330 432 c 0,125,126
 330 436 330 436 326 440 c 1,127,128
 315 437 315 437 302 423 c 0,129,130
 292 402 292 402 287 373 c 0,131,132
 282 345 282 345 282 321 c 0,112,113
338 273 m 1,133,-1
 338 273 l 1,133,-1
EndSplineSet
EndChar

StartChar: A
Encoding: 65 65 35
Width: 711
Flags: W
LayerCount: 2
Fore
SplineSet
318 775 m 0,0,1
 329 778 329 778 340 778 c 0,2,3
 365 778 365 778 390 764 c 1,4,-1
 394 764 l 1,5,-1
 398 759 l 2,6,7
 401 757 401 757 405 754 c 1,8,-1
 401 755 l 1,9,10
 467 675 467 675 497.5 598.5 c 128,-1,11
 528 522 528 522 548 462 c 0,12,13
 556 445 556 445 568.5 406.5 c 128,-1,14
 581 368 581 368 589 342 c 2,15,-1
 618 237 l 1,16,17
 653 126 653 126 666 23 c 1,18,19
 664 17 664 17 648 13 c 0,20,21
 628 -14 628 -14 595 -14 c 0,22,23
 578 -14 578 -14 561 -5 c 0,24,25
 538 7 538 7 522 34 c 2,26,-1
 520 38 l 1,27,28
 505 142 505 142 465 251 c 1,29,-1
 247 249 l 1,30,31
 215 151 215 151 189 46 c 1,32,33
 173 10 173 10 146 -3 c 0,34,35
 130 -11 130 -11 117 -11 c 0,36,37
 76 -11 76 -11 55 22 c 0,38,39
 45 38 45 38 45 60 c 0,40,41
 45 69 45 69 47 80 c 0,42,43
 89 252 89 252 147 431 c 2,44,-1
 259 739 l 1,45,-1
 262 742 l 2,46,47
 284 767 284 767 318 775 c 0,0,1
285 371 m 1,48,-1
 422 374 l 1,49,50
 415 397 415 397 408 427 c 128,-1,51
 401 457 401 457 388 491 c 0,52,53
 365 552 365 552 353 579 c 1,54,55
 342 545 342 545 285 371 c 1,48,-1
EndSplineSet
EndChar

StartChar: B
Encoding: 66 66 36
Width: 711
Flags: W
LayerCount: 2
Fore
SplineSet
86 19 m 0,0,1
 67 21 67 21 67 23 c 0,2,3
 67 35 67 35 72 48 c 0,4,5
 73 663 73 663 77 676 c 0,6,7
 88 735 88 735 175 763 c 0,8,9
 221 776 221 776 319 779 c 2,10,-1
 320 779 l 1,11,12
 390 779 390 779 447 759 c 0,13,14
 504 740 504 740 541 710 c 0,15,16
 576 680 576 680 594.5 642 c 128,-1,17
 613 604 613 604 613 568 c 0,18,19
 613 518 613 518 586 471 c 0,20,21
 567 438 567 438 537 412 c 1,22,23
 584 384 584 384 610 344 c 0,24,25
 643 294 643 294 643 239 c 0,26,27
 643 202 643 202 629 167 c 0,28,29
 601 96 601 96 535 51 c 0,30,31
 499 28 499 28 454 17 c 0,32,33
 398 1 398 1 341 -3 c 128,-1,34
 284 -7 284 -7 215 -7 c 2,35,-1
 177 -7 l 2,36,37
 157 -7 157 -7 141 -6 c 0,38,39
 105 -3 105 -3 86 19 c 0,0,1
383.5 315.5 m 128,-1,41
 347 324 347 324 308 328 c 0,42,43
 264 330 264 330 223 325 c 1,44,-1
 223 116 l 1,45,46
 249 117 249 117 294.5 118.5 c 128,-1,47
 340 120 340 120 386 131 c 128,-1,48
 432 142 432 142 465 165 c 0,49,50
 493 185 493 185 492 222 c 0,51,52
 492 242 492 242 482 259.5 c 128,-1,53
 472 277 472 277 450 289 c 0,54,40
 420 307 420 307 383.5 315.5 c 128,-1,41
223 622 m 1,55,-1
 223 474 l 1,56,57
 236 473 236 473 254 473 c 128,-1,58
 272 473 272 473 300 474 c 0,59,60
 317 475 317 475 346 481 c 0,61,62
 410 495 410 495 444 526 c 0,63,64
 459 539 459 539 459 558 c 0,65,66
 459 592 459 592 415 612 c 0,67,68
 394 622 394 622 366.5 627 c 128,-1,69
 339 632 339 632 313 632 c 0,70,71
 270 632 270 632 223 622 c 1,55,-1
EndSplineSet
EndChar

StartChar: C
Encoding: 67 67 37
Width: 711
Flags: W
LayerCount: 2
Fore
SplineSet
529 233 m 2,0,1
 557 253 557 253 586 253 c 128,-1,2
 615 253 615 253 635.5 234 c 128,-1,3
 656 215 656 215 656 187 c 0,4,5
 656 173 656 173 647 152 c 1,6,7
 624 119 624 119 597 89 c 0,8,9
 540 27 540 27 453 -2 c 0,10,11
 407 -18 407 -18 351 -17 c 0,12,13
 266 -17 266 -17 225 12 c 0,14,15
 189 38 189 38 145 87 c 0,16,17
 102 137 102 137 79 205 c 128,-1,18
 56 273 56 273 56 351 c 0,19,20
 56 407 56 407 72.5 461 c 128,-1,21
 89 515 89 515 112 561.5 c 128,-1,22
 135 608 135 608 169 655 c 0,23,24
 206 702 206 702 253 729 c 0,25,26
 300 738 300 738 333 743 c 1,27,28
 378 749 378 749 417 752 c 0,29,30
 456 761 456 761 491 762 c 0,31,32
 548 762 548 762 588 733.5 c 128,-1,33
 628 705 628 705 663 639 c 1,34,35
 668 623 668 623 668 608 c 0,36,37
 668 576 668 576 648 556 c 128,-1,38
 628 536 628 536 597 536 c 128,-1,39
 566 536 566 536 539 562 c 2,40,-1
 536 565 l 1,41,42
 516 599 516 599 505.5 608 c 128,-1,43
 495 617 495 617 483 617 c 0,44,45
 446 617 446 617 400 603 c 1,46,47
 343 579 343 579 314 552 c 128,-1,48
 285 525 285 525 265 495.5 c 128,-1,49
 245 466 245 466 228 416 c 128,-1,50
 211 366 211 366 205 317 c 0,51,52
 205 279 205 279 219.5 242 c 128,-1,53
 234 205 234 205 261.5 175 c 128,-1,54
 289 145 289 145 309 128 c 0,55,56
 321 118 321 118 343 119 c 0,57,58
 370 119 370 119 399 128 c 128,-1,59
 428 137 428 137 450 153 c 0,60,61
 489 181 489 181 526 231 c 1,62,-1
 529 233 l 2,0,1
EndSplineSet
EndChar

StartChar: D
Encoding: 68 68 38
Width: 711
Flags: W
LayerCount: 2
Fore
SplineSet
260 745 m 0,0,1
 274 745 274 745 289 744 c 0,2,3
 398 740 398 740 445 714 c 0,4,5
 492 685 492 685 545 630 c 0,6,7
 594 575 594 575 622 515 c 0,8,9
 650 456 650 456 650 386 c 0,10,11
 650 379 650 379 649 373 c 0,12,13
 649 298 649 298 620 226 c 0,14,15
 591 155 591 155 532 101 c 0,16,17
 486 63 486 63 428 39 c 128,-1,18
 370 15 370 15 294 2 c 2,19,-1
 218 -13 l 1,20,21
 206 -17 206 -17 146 -23 c 1,22,23
 96 -18 96 -18 77 8 c 0,24,25
 63 29 63 29 64 41 c 2,26,-1
 62 660 l 1,27,28
 67 688 67 688 97 705 c 0,29,30
 127 725 127 725 176 737 c 0,31,32
 217 745 217 745 260 745 c 0,0,1
255.5 600 m 128,-1,34
 244 600 244 600 235 599 c 0,35,36
 226 597 226 597 213 594 c 1,37,-1
 213 129 l 1,38,39
 246 132 246 132 278 137 c 0,40,41
 309 141 309 141 351 162 c 0,42,43
 393 184 393 184 413 203 c 0,44,45
 456 237 456 237 478 280 c 0,46,47
 500 331 500 331 500 381 c 0,48,49
 500 473 500 473 425 532 c 0,50,51
 385 565 385 565 359 582 c 0,52,53
 333 596 333 596 283 598 c 0,54,33
 267 600 267 600 255.5 600 c 128,-1,34
EndSplineSet
EndChar

StartChar: E
Encoding: 69 69 39
Width: 711
Flags: W
LayerCount: 2
Fore
SplineSet
582 606 m 1,0,1
 523 603 523 603 451 603 c 2,2,-1
 376 603 l 2,3,4
 307 603 307 603 242 599 c 1,5,-1
 241 427 l 1,6,7
 357 425 357 425 516 437 c 0,8,9
 520 437 520 437 523 438 c 0,10,11
 556 438 556 438 577 420 c 0,12,13
 602 399 602 399 602 370 c 0,14,15
 602 350 602 350 589 332 c 0,16,17
 572 310 572 310 535 302 c 1,18,19
 378 290 378 290 278 291 c 0,20,21
 259 291 259 291 240 291 c 1,22,-1
 239 135 l 1,23,24
 284 131 284 131 323 131 c 0,25,26
 398 131 398 131 564 145 c 0,27,28
 568 145 568 145 571 145 c 0,29,30
 598 145 598 145 619 131.5 c 128,-1,31
 640 118 640 118 647 97 c 0,32,33
 650 89 650 89 649.5 78 c 128,-1,34
 649 67 649 67 643 54 c 0,35,36
 633 32 633 32 606 17 c 2,37,-1
 604 15 l 1,38,39
 558 2 558 2 502 2 c 2,40,-1
 441 3 l 2,41,42
 404 3 404 3 364 2 c 0,43,44
 308 0 308 0 248 1 c 0,45,46
 189 2 189 2 138 14 c 1,47,48
 110 27 110 27 98.5 44.5 c 128,-1,49
 87 62 87 62 87 79 c 0,50,51
 87 81 87 81 87 83 c 2,52,-1
 87 616 l 1,53,54
 75 648 75 648 75 665.5 c 128,-1,55
 75 683 75 683 81 696.5 c 128,-1,56
 87 710 87 710 101 724 c 2,57,-1
 105 730 l 1,58,59
 165 741 165 741 206 743 c 0,60,61
 252 746 252 746 289 747 c 2,62,-1
 380 745 l 2,63,64
 419 745 419 745 455.5 748 c 128,-1,65
 492 751 492 751 522 751 c 0,66,67
 549 751 549 751 559 751 c 128,-1,68
 569 751 569 751 571 751 c 0,69,70
 604 751 604 751 624 732 c 0,71,72
 649 710 649 710 650 679 c 0,73,74
 650 658 650 658 636 638 c 0,75,76
 619 615 619 615 582 606 c 1,0,1
EndSplineSet
EndChar

StartChar: F
Encoding: 70 70 40
Width: 711
Flags: W
LayerCount: 2
Fore
SplineSet
219 597 m 1,0,1
 225 564 225 564 226 512 c 2,2,-1
 224 448 l 1,3,4
 292 449 292 449 390.5 453 c 128,-1,5
 489 457 489 457 549 460 c 0,6,-1
 550 460 l 2,7,8
 587 460 587 460 610 441.5 c 128,-1,9
 633 423 633 423 633 393 c 0,10,11
 633 350 633 350 585 329 c 0,12,13
 546 312 546 312 485 313 c 2,14,-1
 363 313 l 2,15,16
 307 313 307 313 224 311 c 1,17,-1
 224 52 l 1,18,-1
 224 51 l 2,19,20
 222 16 222 16 197 -3 c 0,21,22
 172 -23 172 -23 145 -24 c 0,23,24
 119 -24 119 -24 97 -5 c 0,25,26
 76 12 76 12 71 47 c 1,27,-1
 71 438 l 1,28,-1
 72 513 l 2,29,30
 72 546 72 546 69 575 c 128,-1,31
 66 604 66 604 54 620 c 1,32,33
 44 642 44 642 44 659 c 0,34,35
 44 686 44 686 62 705 c 0,36,37
 75 719 75 719 99 726 c 1,38,39
 148 734 148 734 200 735 c 0,40,41
 255 737 255 737 467 742 c 0,42,43
 520 743 520 743 567 749 c 1,44,-1
 569 749 l 2,45,46
 607 749 607 749 629.5 730.5 c 128,-1,47
 652 712 652 712 652 682 c 0,48,49
 652 658 652 658 635.5 639 c 128,-1,50
 619 620 619 620 585 612 c 1,51,52
 508 603 508 603 425 602 c 2,53,-1
 402 602 l 2,54,55
 328 602 328 602 219 597 c 1,0,1
EndSplineSet
EndChar

StartChar: G
Encoding: 71 71 41
Width: 711
Flags: W
LayerCount: 2
Fore
SplineSet
594 441 m 1,0,1
 628 433 628 433 643.5 413.5 c 128,-1,2
 659 394 659 394 659 372 c 128,-1,3
 659 350 659 350 645 332 c 0,4,5
 636 320 636 320 621 312 c 1,6,-1
 621 147 l 2,7,8
 621 112 621 112 596 88 c 0,9,10
 578 70 578 70 562 55 c 0,11,12
 516 13 516 13 443 -6 c 0,13,14
 396 -19 396 -19 350 -20 c 0,15,16
 325 -20 325 -20 299 -16 c 1,17,18
 218 6 218 6 183 34 c 0,19,20
 151 61 151 61 116.5 117 c 128,-1,21
 82 173 82 173 69 228.5 c 128,-1,22
 56 284 56 284 52 359 c 1,23,24
 52 400 52 400 55 441 c 128,-1,25
 58 482 58 482 76 530 c 128,-1,26
 94 578 94 578 115.5 619.5 c 128,-1,27
 137 661 137 661 184 694 c 0,28,29
 209 714 209 714 261 734 c 0,30,31
 313 756 313 756 400 767 c 1,32,-1
 401 767 l 2,33,34
 426 767 426 767 463 762 c 0,35,36
 548 751 548 751 589 718 c 0,37,38
 617 695 617 695 617 661 c 0,39,40
 617 632 617 632 597 612 c 128,-1,41
 577 592 577 592 546 592 c 0,42,43
 531 592 531 592 510 598 c 0,44,45
 455 614 455 614 436.5 618.5 c 128,-1,46
 418 623 418 623 405 623 c 128,-1,47
 392 623 392 623 377 618 c 128,-1,48
 362 613 362 613 349 610 c 0,49,50
 303 589 303 589 273 567 c 128,-1,51
 243 545 243 545 219 494 c 0,52,53
 199 452 199 452 199 390 c 0,54,55
 199 376 199 376 200 362 c 0,56,57
 204 288 204 288 217 250 c 0,58,59
 230 211 230 211 261 168 c 128,-1,60
 292 125 292 125 311 117 c 0,61,62
 332 109 332 109 352 109 c 128,-1,63
 372 109 372 109 392 115 c 0,64,65
 433 128 433 128 466 155 c 1,66,-1
 466 293 l 1,67,68
 432 292 432 292 410.5 291 c 128,-1,69
 389 290 389 290 335 290 c 2,70,-1
 333 290 l 1,71,72
 291 295 291 295 270 316.5 c 128,-1,73
 249 338 249 338 249 363.5 c 128,-1,74
 249 389 249 389 272 412.5 c 128,-1,75
 295 436 295 436 339 436 c 0,76,77
 421 436 421 436 456 438 c 0,78,79
 515 441 515 441 591 441 c 2,80,-1
 594 441 l 1,0,1
EndSplineSet
EndChar

StartChar: H
Encoding: 72 72 42
Width: 711
Flags: W
LayerCount: 2
Fore
SplineSet
632 743 m 0,0,1
 649 723 649 723 649 689 c 2,2,-1
 649 67 l 2,3,4
 649 20 649 20 621 0 c 0,5,6
 596 -18 596 -18 567 -17.5 c 128,-1,7
 538 -17 538 -17 515 5 c 0,8,9
 490 28 490 28 490 70 c 2,10,-1
 488 323 l 1,11,-1
 223 294 l 1,12,-1
 223 72 l 2,13,14
 223 22 223 22 190 2 c 0,15,16
 165 -16 165 -16 136.5 -16 c 128,-1,17
 108 -16 108 -16 87 7 c 0,18,19
 66 29 66 29 66 68 c 2,20,-1
 66 678 l 2,21,22
 66 726 66 726 99 748 c 0,23,24
 122 764 122 764 158 764 c 0,25,26
 185 764 185 764 203 743 c 0,27,28
 223 722 223 722 223 686 c 2,29,-1
 223 407 l 1,30,-1
 488 430 l 1,31,-1
 490 674 l 2,32,33
 490 700 490 700 500 718 c 0,34,35
 521 754 521 754 559 761 c 0,36,37
 574 764 574 764 588 764 c 0,38,39
 615 764 615 764 632 743 c 0,0,1
EndSplineSet
EndChar

StartChar: I
Encoding: 73 73 43
Width: 711
Flags: W
LayerCount: 2
Fore
SplineSet
555 144.5 m 128,-1,1
 567 145 567 145 570 145 c 0,2,3
 603 145 603 145 623 126 c 0,4,5
 648 104 648 104 649 73 c 0,6,7
 649 52 649 52 635 32 c 0,8,9
 618 8 618 8 580 0 c 1,10,11
 534 -2 534 -2 485 -2 c 0,12,13
 434 -2 434 -2 358 -1 c 128,-1,14
 282 0 282 0 137 0 c 2,15,-1
 135 0 l 1,16,17
 98 5 98 5 80 26.5 c 128,-1,18
 62 48 62 48 62 73 c 0,19,20
 62 101 62 101 82.5 122.5 c 128,-1,21
 103 144 103 144 139 146 c 2,22,-1
 140 146 l 1,23,-1
 215 146 l 2,24,25
 249 146 249 146 271 146 c 1,26,-1
 271 613 l 1,27,-1
 132 612 l 1,28,29
 95 617 95 617 76.5 637 c 128,-1,30
 58 657 58 657 58 680 c 0,31,32
 58 706 58 706 79 726 c 128,-1,33
 100 746 100 746 136 748 c 0,34,35
 137 747 l 0,36,37
 165 747 165 747 259 748 c 2,38,-1
 259 748 l 1,39,40
 344 744 344 744 419 748.5 c 128,-1,41
 494 753 494 753 530 753 c 0,42,43
 562 753 562 753 584 752 c 1,44,45
 617 742 617 742 632.5 723 c 128,-1,46
 648 704 648 704 648 683 c 0,47,48
 648 660 648 660 630 641 c 128,-1,49
 612 622 612 622 579 615 c 1,50,-1
 438 613 l 1,51,-1
 438 144 l 1,52,-1
 491 144 l 2,53,0
 543 144 543 144 555 144.5 c 128,-1,1
136 734 m 1,54,-1
 137 717 l 1,55,-1
 145 725 l 1,56,-1
 136 734 l 1,54,-1
EndSplineSet
EndChar

StartChar: J
Encoding: 74 74 44
Width: 711
Flags: W
LayerCount: 2
Fore
SplineSet
706 680 m 128,-1,1
 706 653 706 653 688 633.5 c 128,-1,2
 670 614 670 614 637 607 c 1,3,4
 612 606 612 606 583 606 c 2,5,-1
 551 606 l 1,6,-1
 553 206 l 2,7,8
 553 135 553 135 512 79 c 0,9,10
 492 52 492 52 463 30 c 0,11,12
 408 -12 408 -12 330 -29 c 0,13,14
 293 -38 293 -38 255 -37 c 0,15,16
 201 -37 201 -37 170 -21 c 0,17,18
 140 -13 140 -13 109 6 c 0,19,20
 104 9 104 9 83 23 c 0,21,22
 47 73 47 73 42 85 c 0,23,24
 27 105 27 105 27 128 c 0,25,26
 27 129 27 129 27 130 c 0,27,28
 27 159 27 159 46.5 179.5 c 128,-1,29
 66 200 66 200 95 200 c 128,-1,30
 124 200 124 200 150 181 c 1,31,32
 166 167 166 167 175 153 c 0,33,34
 191 130 191 130 198.5 115 c 128,-1,35
 206 100 206 100 217 85 c 0,36,37
 229 74 229 74 252 64 c 0,38,39
 261 60 261 60 272 60 c 128,-1,40
 283 60 283 60 298 65 c 0,41,42
 330 76 330 76 353 98 c 1,43,44
 367 109 367 109 372 117 c 0,45,46
 379 129 379 129 385 143 c 0,47,48
 396 218 396 218 396 333 c 0,49,50
 396 366 396 366 394 441 c 0,51,52
 393 520 393 520 390 604 c 1,53,54
 323 602 323 602 273 602 c 2,55,-1
 261 602 l 1,56,57
 223 607 223 607 202.5 628 c 128,-1,58
 182 649 182 649 182 673 c 0,59,60
 182 675 182 675 182 677 c 0,61,62
 183 724 183 724 244 746 c 2,63,-1
 248 748 l 1,64,65
 388 749 388 749 440.5 749 c 128,-1,66
 493 749 493 749 625 752 c 1,67,-1
 630 752 l 1,68,-1
 631 752 l 2,69,70
 666 750 666 750 686 728.5 c 128,-1,0
 706 707 706 707 706 680 c 128,-1,1
EndSplineSet
EndChar

StartChar: K
Encoding: 75 75 45
Width: 711
Flags: W
LayerCount: 2
Fore
SplineSet
201 331 m 1,0,1
 201 207 201 207 207 72 c 1,2,3
 205 33 205 33 180 13 c 0,4,5
 158 -7 158 -7 131.5 -7 c 128,-1,6
 105 -7 105 -7 83 12 c 0,7,8
 61 16 61 16 55 23 c 1,9,-1
 55 25 l 2,10,11
 56 199 56 199 56 369.5 c 128,-1,12
 56 540 56 540 55 726 c 2,13,-1
 55 729 l 1,14,15
 64 733 64 733 83 735 c 0,16,17
 102 753 102 753 127 753 c 128,-1,18
 152 753 152 753 172 737 c 0,19,20
 194 734 194 734 204 729 c 1,21,-1
 204 729 l 2,22,23
 204 658 204 658 203.5 600.5 c 128,-1,24
 203 543 203 543 203 490 c 1,25,26
 281 525 281 525 348 590 c 0,27,28
 385 626 385 626 423 671 c 0,29,30
 461 703 461 703 512 740 c 1,31,32
 543 747 543 747 575 747 c 0,33,34
 604 747 604 747 624 728 c 128,-1,35
 644 709 644 709 644 680 c 0,36,37
 644 666 644 666 635 643 c 1,38,39
 595 599 595 599 565 564 c 0,40,41
 489 483 489 483 432 435 c 0,42,43
 407 414 407 414 379 396 c 1,44,45
 669 126 669 126 676 117 c 0,46,47
 694 95 694 95 694 67 c 128,-1,48
 694 39 694 39 674 20.5 c 128,-1,49
 654 2 654 2 625 2 c 0,50,51
 611 2 611 2 595 8 c 128,-1,52
 579 14 579 14 564 30 c 0,53,54
 555 40 555 40 528 64 c 0,55,56
 508 83 508 83 397 189 c 128,-1,57
 286 295 286 295 265.5 315 c 128,-1,58
 245 335 245 335 235 344 c 1,59,60
 219 337 219 337 201 331 c 1,0,1
EndSplineSet
EndChar

StartChar: L
Encoding: 76 76 46
Width: 711
Flags: W
LayerCount: 2
Fore
SplineSet
638 75 m 128,-1,1
 638 53 638 53 620 33.5 c 128,-1,2
 602 14 602 14 569 8 c 1,3,4
 464 5 464 5 355 4.5 c 128,-1,5
 246 4 246 4 145 -10 c 1,6,7
 114 -7 114 -7 96 8 c 0,8,9
 73 26 73 26 69 61 c 1,10,-1
 69 62 l 2,11,12
 69 218 69 218 70 372 c 128,-1,13
 71 526 71 526 71 683 c 2,14,-1
 71 685 l 1,15,16
 78 716 78 716 98 733 c 0,17,18
 119 752 119 752 142.5 751.5 c 128,-1,19
 166 751 166 751 186 736 c 0,20,21
 209 722 209 722 221 690 c 1,22,-1
 221 687 l 2,23,24
 221 541 221 541 220 403 c 128,-1,25
 219 265 219 265 218 130 c 1,26,27
 301 132 301 132 390 137.5 c 128,-1,28
 479 143 479 143 573 145 c 1,29,-1
 577 144 l 2,30,31
 607 135 607 135 622.5 116 c 128,-1,0
 638 97 638 97 638 75 c 128,-1,1
EndSplineSet
EndChar

StartChar: M
Encoding: 77 77 47
Width: 711
Flags: W
LayerCount: 2
Fore
SplineSet
399 600.5 m 128,-1,1
 412 649 412 649 444 717 c 1,2,3
 474 760 474 760 522 761 c 0,4,5
 569 761 569 761 597 709 c 1,6,7
 613 667 613 667 629.5 535.5 c 128,-1,8
 646 404 646 404 649 388 c 1,9,-1
 647 392 l 2,10,11
 644 396 644 396 643 397 c 0,12,13
 639 401 639 401 636 401 c 0,14,15
 632 402 632 402 628 403 c 1,16,-1
 606 382 l 1,17,-1
 649 384 l 1,18,-1
 662 222 l 2,19,20
 672 95 672 95 672 68 c 0,21,22
 672 61 672 61 671.5 59 c 128,-1,23
 671 57 671 57 670.5 56.5 c 128,-1,24
 670 56 670 56 670 55 c 0,25,26
 667 23 667 23 646 5 c 0,27,28
 625 -15 625 -15 598.5 -15 c 128,-1,29
 572 -15 572 -15 550 4 c 0,30,31
 525 23 525 23 522 59 c 1,32,-1
 522 60 l 2,33,34
 522 85 522 85 521.5 119.5 c 128,-1,35
 521 154 521 154 523 191 c 0,36,37
 517 255 517 255 515 319 c 1,38,39
 504 374 504 374 503 423 c 1,40,-1
 499 454 l 1,41,42
 483 399 483 399 469.5 346 c 128,-1,43
 456 293 456 293 432 247 c 1,44,-1
 430 245 l 2,45,46
 402 215 402 215 363 214 c 2,47,-1
 359 213 l 1,48,-1
 354 215 l 2,49,50
 314 226 314 226 296 253 c 2,51,-1
 294 255 l 1,52,53
 264 335 264 335 253 364.5 c 128,-1,54
 242 394 242 394 226 442 c 1,55,56
 218 368 218 368 212 299 c 0,57,58
 200 166 200 166 183 33 c 1,59,60
 169 3 169 3 149 -11 c 0,61,62
 130 -25 130 -25 106 -25 c 128,-1,63
 82 -25 82 -25 61 -5 c 0,64,65
 40 13 40 13 36 47 c 1,66,-1
 101 691 l 1,67,68
 108 719 108 719 127 735 c 0,69,70
 147 753 147 753 175 753 c 0,71,72
 219 753 219 753 247 716 c 1,73,-1
 250 712 l 1,74,75
 299 609 299 609 304 598 c 1,76,-1
 301 602 l 1,77,-1
 297 605 l 1,78,79
 287 610 287 610 287 609 c 1,80,-1
 283 609 l 1,81,-1
 258 587 l 1,82,-1
 259 584 l 1,83,-1
 280 572 l 1,84,-1
 304 594 l 1,85,86
 308 581 308 581 324.5 533.5 c 128,-1,87
 341 486 341 486 359 430 c 1,88,89
 363 448 363 448 374.5 500 c 128,-1,0
 386 552 386 552 399 600.5 c 128,-1,1
EndSplineSet
EndChar

StartChar: N
Encoding: 78 78 48
Width: 711
Flags: W
LayerCount: 2
Fore
SplineSet
451 347.5 m 128,-1,1
 466 323 466 323 482 290 c 1,2,3
 488 476 488 476 488 710 c 2,4,-1
 488 713 l 1,5,6
 498 747 498 747 519 764 c 0,7,8
 540 782 540 782 565 782 c 128,-1,9
 590 782 590 782 610 766 c 0,10,11
 630 751 630 751 639 719 c 1,12,-1
 639 716 l 2,13,14
 639 547 639 547 636.5 390.5 c 128,-1,15
 634 234 634 234 625 70 c 1,16,-1
 657 40 l 1,17,-1
 623 40 l 1,18,-1
 623 38 l 1,19,20
 612 10 612 10 594 -3 c 0,21,22
 575 -17 575 -17 553 -17 c 0,23,24
 520 -17 520 -17 489 9 c 2,25,-1
 486 11 l 1,26,27
 483 16 483 16 482 19 c 1,28,-1
 469 19 l 1,29,-1
 469 37 l 1,30,31
 413 123 413 123 382.5 192.5 c 128,-1,32
 352 262 352 262 318 317.5 c 128,-1,33
 284 373 284 373 255 417.5 c 128,-1,34
 226 462 226 462 206 497 c 1,35,-1
 206 338 l 1,36,-1
 207 58 l 1,37,-1
 207 57 l 2,38,39
 205 19 205 19 180 -1 c 0,40,41
 158 -21 158 -21 131.5 -21 c 128,-1,42
 105 -21 105 -21 84 -3 c 0,43,44
 63 15 63 15 57 50 c 1,45,-1
 56 697 l 1,46,-1
 57 701 l 1,47,48
 63 729 63 729 83 745 c 0,49,50
 102 763 102 763 128 763 c 2,51,-1
 129 763 l 1,52,53
 153 761 153 761 181 744 c 1,54,55
 253 657 253 657 344.5 514.5 c 128,-1,0
 436 372 436 372 451 347.5 c 128,-1,1
EndSplineSet
EndChar

StartChar: O
Encoding: 79 79 49
Width: 711
Flags: W
LayerCount: 2
Fore
SplineSet
499 342 m 2,0,-1
 505 392 l 2,1,2
 508 415 508 415 508 442.5 c 128,-1,3
 508 470 508 470 501.5 501 c 128,-1,4
 495 532 495 532 478 558 c 0,5,6
 446 610 446 610 418 639 c 0,7,8
 399 659 399 659 371 659 c 0,9,10
 368 659 368 659 365 659 c 0,11,12
 330 653 330 653 297 607 c 0,13,14
 259 555 259 555 237 492.5 c 128,-1,15
 215 430 215 430 212 408.5 c 128,-1,16
 209 387 209 387 201 329 c 1,17,18
 204 271 204 271 217.5 227 c 128,-1,19
 231 183 231 183 251 156.5 c 128,-1,20
 271 130 271 130 283 118 c 1,21,22
 304 109 304 109 309.5 108.5 c 128,-1,23
 315 108 315 108 320 109 c 2,24,-1
 323 109 l 2,25,26
 348 109 348 109 361 111 c 0,27,28
 368 112 368 112 388 126 c 0,29,30
 413 146 413 146 429 169 c 0,31,32
 454 206 454 206 488 283 c 0,33,34
 499 309 499 309 499 335 c 0,35,36
 499 338 499 338 499 342 c 2,0,-1
261 -7 m 1,37,38
 193 14 193 14 157 55 c 0,39,40
 87 138 87 138 69 232 c 0,41,42
 59 282 59 282 59 325 c 128,-1,43
 59 368 59 368 64 402 c 2,44,-1
 64 403 l 1,45,46
 79 496 79 496 115 580 c 0,47,48
 157 677 157 677 215 728 c 0,49,50
 236 745 236 745 280 759 c 0,51,52
 324 773 324 773 390 776 c 1,53,54
 484 765 484 765 531 726 c 0,55,56
 572 687 572 687 613 602 c 0,57,58
 654 524 654 524 654 419 c 0,59,60
 654 359 654 359 644 299 c 0,61,62
 640 251 640 251 623 199 c 0,63,64
 585 87 585 87 521 23 c 0,65,66
 482 17 482 17 437 13 c 1,67,68
 413 5 413 5 386.5 -3 c 128,-1,69
 360 -11 360 -11 332 -14 c 1,70,71
 288 -10 288 -10 261 -7 c 1,37,38
EndSplineSet
EndChar

StartChar: P
Encoding: 80 80 50
Width: 711
Flags: W
LayerCount: 2
Fore
SplineSet
504 249 m 0,0,1
 431 210 431 210 336 203 c 0,2,3
 301 201 301 201 270.5 200.5 c 128,-1,4
 240 200 240 200 213 206 c 1,5,-1
 213 133 l 2,6,7
 213 79 213 79 215 36 c 2,8,-1
 215 35 l 1,9,10
 213 0 213 0 187 -18 c 0,11,12
 165 -38 165 -38 138.5 -38.5 c 128,-1,13
 112 -39 112 -39 91 -20 c 0,14,15
 70 -2 70 -2 65 32 c 1,16,-1
 64 360 l 1,17,-1
 64 679 l 1,18,19
 73 711 73 711 92 727 c 128,-1,20
 111 743 111 743 137 743 c 0,21,22
 145 743 145 743 150 742 c 0,23,24
 197 762 197 762 251 774.5 c 128,-1,25
 305 787 305 787 331 787 c 0,26,27
 425 787 425 787 494 753 c 0,28,29
 536 735 536 735 566 706 c 0,30,31
 624 651 624 651 647 571 c 0,32,33
 658 532 658 532 658 493 c 0,34,35
 658 417 658 417 616 353 c 0,36,37
 572 288 572 288 504 249 c 0,0,1
213 631 m 1,38,-1
 213 355 l 1,39,40
 261 347 261 347 309 347 c 0,41,42
 335 347 335 347 381.5 361 c 128,-1,43
 428 375 428 375 455 400 c 0,44,45
 480 424 480 424 493 452.5 c 128,-1,46
 506 481 506 481 506 510 c 0,47,48
 506 552 506 552 483 588 c 128,-1,49
 460 624 460 624 415 646 c 0,50,51
 377 663 377 663 330 664 c 0,52,53
 285 662 285 662 264 653.5 c 128,-1,54
 243 645 243 645 213 631 c 1,38,-1
EndSplineSet
EndChar

StartChar: Q
Encoding: 81 81 51
Width: 711
Flags: W
LayerCount: 2
Fore
SplineSet
681 -26 m 0,0,1
 681 -30 681 -30 681 -34 c 0,2,3
 681 -33 681 -33 681 -32 c 0,4,5
 681 -51 681 -51 666 -66 c 0,6,7
 651 -78 651 -78 620 -81 c 1,8,-1
 619 -81 l 2,9,10
 595 -81 595 -81 574 -71 c 1,11,12
 514 -9 514 -9 467 28 c 1,13,-1
 425 4 l 1,14,15
 403 -6 403 -6 385 -14 c 0,16,17
 378 -16 378 -16 331 -21 c 0,18,19
 323 -22 323 -22 315 -22 c 0,20,21
 294 -22 294 -22 268 -16 c 0,22,23
 226 -7 226 -7 175 30 c 0,24,25
 129 67 129 67 110 100 c 0,26,27
 91 133 91 133 77 192 c 0,28,29
 63 252 63 252 59 296 c 0,30,31
 56 317 56 317 58 336 c 128,-1,32
 60 355 60 355 60 371 c 2,33,-1
 60 372 l 1,34,35
 63 415 63 415 72 468 c 0,36,37
 81 517 81 517 102 561 c 0,38,39
 123 608 123 608 152 652 c 0,40,41
 181 695 181 695 224 722 c 0,42,43
 255 741 255 741 305 757 c 0,44,45
 328 764 328 764 356 764 c 0,46,47
 397 764 397 764 450 748 c 0,48,49
 537 721 537 721 596 642 c 0,50,51
 644 570 644 570 653 470 c 0,52,53
 656 439 656 439 656 409 c 0,54,55
 656 371 656 371 653 346 c 0,56,57
 642 281 642 281 624 224 c 0,58,59
 607 170 607 170 566 120 c 1,60,61
 595 92 595 92 641 53 c 1,62,63
 679 24 679 24 681 -26 c 0,0,1
502 360 m 1,64,65
 506 424 506 424 502 457 c 0,66,67
 493 523 493 523 462 564 c 0,68,69
 428 604 428 604 396 614 c 0,70,71
 390 615 390 615 382 615 c 0,72,73
 356 615 356 615 315 596 c 1,74,75
 282 574 282 574 265 545 c 0,76,77
 218 457 218 457 210 388 c 0,78,79
 207 363 207 363 207.5 342 c 128,-1,80
 208 321 208 321 209 302 c 0,81,82
 210 262 210 262 224 214 c 0,83,84
 237 170 237 170 261.5 149 c 128,-1,85
 286 128 286 128 321 114 c 0,86,87
 326 114 326 114 332 114 c 0,88,89
 345 114 345 114 364 123 c 1,90,-1
 343 143 l 1,91,92
 331 159 331 159 306 178 c 0,93,94
 281 192 281 192 271 205 c 128,-1,95
 261 218 261 218 258 236 c 0,96,97
 257 239 257 239 257 242 c 0,98,99
 257 267 257 267 277 285.5 c 128,-1,100
 297 304 297 304 319 304 c 0,101,102
 324 304 324 304 330 303 c 0,103,104
 360 303 360 303 388 277 c 1,105,106
 417 257 417 257 431 246 c 0,107,108
 445 231 445 231 452 225 c 1,109,110
 477 246 477 246 481 264 c 0,111,112
 488 303 488 303 502 360 c 1,64,65
EndSplineSet
EndChar

StartChar: R
Encoding: 82 82 52
Width: 711
Flags: W
LayerCount: 2
Fore
SplineSet
324 229 m 128,-1,1
 307 245 307 245 299 253 c 1,2,3
 269 249 269 249 229 246 c 1,4,-1
 229 58 l 1,5,-1
 229 57 l 2,6,7
 227 19 227 19 202 -1 c 0,8,9
 180 -21 180 -21 153.5 -21 c 128,-1,10
 127 -21 127 -21 106 -3 c 0,11,12
 85 14 85 14 80 50 c 1,13,-1
 80 51 l 2,14,15
 82 584 82 584 79 678 c 1,16,17
 84 715 84 715 99 730 c 0,18,19
 111 742 111 742 122 750 c 1,20,21
 180 784 180 784 229 791 c 0,22,23
 266 797 266 797 282.5 797 c 128,-1,24
 299 797 299 797 305 797 c 0,25,26
 447 797 447 797 545 732 c 0,27,28
 601 691 601 691 626 641.5 c 128,-1,29
 651 592 651 592 651 540 c 0,30,31
 651 499 651 499 636 459 c 0,32,33
 607 379 607 379 532 321 c 0,34,35
 504 301 504 301 472 286 c 1,36,37
 517 244 517 244 572 193 c 0,38,39
 666 96 666 96 670 91 c 0,40,41
 688 69 688 69 688 41 c 128,-1,42
 688 13 688 13 668 -6 c 0,43,44
 648 -25 648 -25 619 -25 c 0,45,46
 605 -25 605 -25 588.5 -19 c 128,-1,47
 572 -13 572 -13 558 2 c 0,48,49
 539 21 539 21 496 62 c 0,50,51
 457 99 457 99 399 156 c 128,-1,0
 341 213 341 213 324 229 c 128,-1,1
485 574 m 128,-1,53
 472 597 472 597 440 616 c 0,54,55
 384 651 384 651 299 651 c 0,56,57
 262 651 262 651 241 648 c 0,58,59
 233 647 233 647 229 643 c 1,60,-1
 229 346 l 1,61,62
 263 348 263 348 286 352 c 0,63,64
 307 356 307 356 361 373 c 0,65,66
 389 382 389 382 413 399 c 0,67,68
 465 435 465 435 487 483 c 0,69,70
 497 506 497 506 497.5 528.5 c 128,-1,52
 498 551 498 551 485 574 c 128,-1,53
EndSplineSet
EndChar

StartChar: S
Encoding: 83 83 53
Width: 711
Flags: W
LayerCount: 2
Fore
SplineSet
587.5 596.5 m 128,-1,1
 567 577 567 577 531 577 c 1,2,-1
 518 578 l 1,3,-1
 515 578 l 1,4,5
 467 590 467 590 434.5 596 c 128,-1,6
 402 602 402 602 373 603 c 1,7,8
 338 597 338 597 321 594 c 128,-1,9
 304 591 304 591 261 567 c 0,10,11
 253 558 253 558 245.5 551 c 128,-1,12
 238 544 238 544 231 538 c 0,13,14
 225 528 225 528 220 517 c 0,15,16
 220 509 220 509 222 502 c 0,17,18
 226 497 226 497 229 493 c 128,-1,19
 232 489 232 489 235 486 c 1,20,-1
 286 463 l 1,21,22
 379 441 379 441 412 433 c 0,23,24
 487 416 487 416 552 386 c 0,25,26
 573 375 573 375 587 358.5 c 128,-1,27
 601 342 601 342 612 329 c 0,28,29
 635 303 635 303 645.5 271.5 c 128,-1,30
 656 240 656 240 656 206 c 0,31,32
 656 159 656 159 636.5 115 c 128,-1,33
 617 71 617 71 581 42 c 0,34,35
 569 32 569 32 556.5 24 c 128,-1,36
 544 16 544 16 532 9 c 0,37,38
 466 -30 466 -30 373 -30 c 0,39,40
 322 -30 322 -30 285 -20 c 128,-1,41
 248 -10 248 -10 202 8 c 0,42,43
 114 45 114 45 65 101 c 2,44,-1
 63 104 l 1,45,46
 52 129 52 129 52 148 c 0,47,48
 52 178 52 178 71.5 197.5 c 128,-1,49
 91 217 91 217 119.5 217 c 128,-1,50
 148 217 148 217 174 198 c 1,51,52
 217 153 217 153 288 135 c 0,53,54
 323 126 323 126 343 123 c 128,-1,55
 363 120 363 120 397 120 c 2,56,-1
 399 120 l 2,57,58
 408 119 408 119 413.5 119 c 128,-1,59
 419 119 419 119 423 120 c 0,60,61
 433 126 433 126 438.5 128.5 c 128,-1,62
 444 131 444 131 450 135 c 128,-1,63
 456 139 456 139 473 149 c 0,64,65
 478 155 478 155 483 161 c 128,-1,66
 488 167 488 167 494 174 c 1,67,-1
 505 200 l 1,68,-1
 505 212 l 2,69,70
 505 218 505 218 504 225 c 0,71,72
 502 231 502 231 498.5 237 c 128,-1,73
 495 243 495 243 491 249 c 0,74,75
 484 256 484 256 477.5 262 c 128,-1,76
 471 268 471 268 464 275 c 0,77,78
 452 280 452 280 442 286 c 0,79,80
 433 291 433 291 418 295 c 0,81,82
 361 311 361 311 325 317 c 128,-1,83
 289 323 289 323 243.5 333.5 c 128,-1,84
 198 344 198 344 158 367 c 0,85,86
 121 390 121 390 86 441 c 0,87,88
 78 453 78 453 76 460 c 128,-1,89
 74 467 74 467 73 478 c 0,90,91
 70 501 70 501 70 521 c 0,92,93
 70 561 70 561 90 595 c 0,94,95
 100 612 100 612 114.5 629 c 128,-1,96
 129 646 129 646 150.5 667.5 c 128,-1,97
 172 689 172 689 206 703 c 0,98,99
 240 718 240 718 276.5 726 c 128,-1,100
 313 734 313 734 338 737.5 c 128,-1,101
 363 741 363 741 399 741 c 2,102,-1
 419 741 l 2,103,104
 430 741 430 741 442 739 c 0,105,106
 478 736 478 736 508 726 c 0,107,108
 537 715 537 715 567 707 c 1,109,-1
 570 705 l 2,110,111
 608 680 608 680 608 642 c 0,112,0
 608 616 608 616 587.5 596.5 c 128,-1,1
EndSplineSet
EndChar

StartChar: T
Encoding: 84 84 54
Width: 711
Flags: W
LayerCount: 2
Fore
SplineSet
478 741.5 m 128,-1,1
 526 740 526 740 554 740 c 2,2,-1
 614 741 l 1,3,-1
 617 741 l 1,4,5
 649 731 649 731 664 712 c 128,-1,6
 679 693 679 693 679 672 c 0,7,8
 679 646 679 646 660.5 627.5 c 128,-1,9
 642 609 642 609 608 602 c 1,10,-1
 441 605 l 1,11,-1
 442 49 l 1,12,-1
 442 49 l 2,13,14
 440 13 440 13 416 -6 c 0,15,16
 391 -26 391 -26 361.5 -26 c 128,-1,17
 332 -26 332 -26 308 -8 c 0,18,19
 284 10 284 10 278 45 c 1,20,-1
 277 606 l 1,21,-1
 98 610 l 1,22,23
 64 616 64 616 46.5 636 c 128,-1,24
 29 656 29 656 29 678 c 0,25,26
 29 706 29 706 50 727 c 128,-1,27
 71 748 71 748 109 748 c 2,28,-1
 164 748 l 2,29,30
 207 748 207 748 252.5 747 c 128,-1,31
 298 746 298 746 364 744.5 c 128,-1,0
 430 743 430 743 478 741.5 c 128,-1,1
EndSplineSet
EndChar

StartChar: U
Encoding: 85 85 55
Width: 711
Flags: W
LayerCount: 2
Fore
SplineSet
60.5 399.5 m 128,-1,1
 59 458 59 458 59 501 c 2,2,-1
 61 691 l 1,3,-1
 61 693 l 1,4,5
 69 725 69 725 89 742 c 0,6,7
 108 760 108 760 133 759.5 c 128,-1,8
 158 759 158 759 178 743 c 0,9,10
 201 728 201 728 211 697 c 1,11,-1
 211 695 l 2,12,13
 211 656 211 656 209 607 c 0,14,15
 205 475 205 475 208 411 c 0,16,17
 213 295 213 295 233 222 c 0,18,19
 241 192 241 192 259 167 c 1,20,21
 288 143 288 143 291 142 c 0,22,23
 300 140 300 140 310.5 140 c 128,-1,24
 321 140 321 140 325 140 c 0,25,26
 400 140 400 140 432 194 c 0,27,28
 443 211 443 211 456 245 c 0,29,30
 479 307 479 307 488 423 c 0,31,32
 497 538 497 538 499 604 c 0,33,34
 501 699 501 699 502 705 c 0,35,36
 511 734 511 734 532 750 c 0,37,38
 551 768 551 768 576 768 c 128,-1,39
 601 768 601 768 621.5 752 c 128,-1,40
 642 736 642 736 651 703 c 1,41,42
 650 621 650 621 646 534 c 0,43,44
 639 345 639 345 612 209 c 0,45,46
 597 134 597 134 571 81 c 1,47,48
 552 48 552 48 526 23 c 0,49,50
 497 13 497 13 451 7 c 0,51,52
 364 -5 364 -5 327 -6 c 0,53,54
 321 -6 321 -6 317 -5 c 0,55,56
 245 -5 245 -5 219 8 c 0,57,58
 193 20 193 20 171 34 c 0,59,60
 151 48 151 48 130 78.5 c 128,-1,61
 109 109 109 109 101 145 c 0,62,63
 81 203 81 203 71.5 272 c 128,-1,0
 62 341 62 341 60.5 399.5 c 128,-1,1
EndSplineSet
EndChar

StartChar: V
Encoding: 86 86 56
Width: 711
Flags: W
LayerCount: 2
Fore
SplineSet
35 716 m 1,0,-1
 35 717 l 1,1,-1
 34 729 l 1,2,3
 34 737 34 737 54 741 c 0,4,5
 75 762 75 762 103 762 c 0,6,7
 143 762 143 762 171 724 c 2,8,-1
 173 721 l 1,9,10
 212 633 212 633 222.5 565 c 128,-1,11
 233 497 233 497 260.5 431 c 128,-1,12
 288 365 288 365 307 313 c 128,-1,13
 326 261 326 261 341 223 c 1,14,15
 344 231 344 231 371 305 c 1,16,17
 490 609 490 609 532 718 c 1,18,-1
 533 720 l 2,19,20
 561 763 561 763 603 763 c 0,21,22
 630 763 630 763 651 743 c 0,23,24
 673 724 673 724 673 694 c 0,25,26
 673 680 673 680 666 661 c 0,27,28
 608 485 608 485 551 356 c 0,29,30
 487 227 487 227 433 39 c 1,31,32
 422 13 422 13 396 -2 c 0,33,34
 371 -19 371 -19 347 -19 c 128,-1,35
 323 -19 323 -19 302.5 -6.5 c 128,-1,36
 282 6 282 6 269 29 c 1,37,38
 194 201 194 201 125 372 c 0,39,40
 61 544 61 544 35 716 c 1,0,-1
EndSplineSet
EndChar

StartChar: W
Encoding: 87 87 57
Width: 711
Flags: W
LayerCount: 2
Fore
SplineSet
524 541.5 m 128,-1,1
 529 627 529 627 546 719 c 1,2,3
 553 751 553 751 576 768 c 0,4,5
 597 785 597 785 623.5 785 c 128,-1,6
 650 785 650 785 672 765 c 0,7,8
 694 746 694 746 693 708 c 2,9,-1
 693 702 l 1,10,11
 678 612 678 612 671.5 554 c 128,-1,12
 665 496 665 496 647 350 c 0,13,14
 636 266 636 266 612 180 c 128,-1,15
 588 94 588 94 567 15 c 1,16,-1
 563 11 l 2,17,18
 533 -19 533 -19 506 -19 c 2,19,-1
 504 -19 l 1,20,21
 458 -11 458 -11 448 24 c 0,22,23
 416 100 416 100 402 160.5 c 128,-1,24
 388 221 388 221 381.5 246.5 c 128,-1,25
 375 272 375 272 373 281 c 1,26,27
 363 246 363 246 348 189 c 0,28,29
 325 103 325 103 286 8 c 1,30,31
 265 -15 265 -15 256.5 -19.5 c 128,-1,32
 248 -24 248 -24 243 -24 c 128,-1,33
 238 -24 238 -24 236 -24 c 0,34,35
 188 -22 188 -22 163 24 c 1,36,37
 118 139 118 139 98 251 c 0,38,39
 88 298 88 298 66 410.5 c 128,-1,40
 44 523 44 523 33 588 c 0,41,42
 18 677 18 677 16 729 c 0,43,44
 16 733 16 733 19 735 c 0,45,46
 20 744 20 744 40 751 c 0,47,48
 59 770 59 770 88 770 c 0,49,50
 106 770 106 770 123.5 761.5 c 128,-1,51
 141 753 141 753 155 733 c 2,52,-1
 159 729 l 1,53,54
 169 646 169 646 199 469 c 0,55,56
 216 381 216 381 220 342 c 0,57,58
 222 322 222 322 237 274 c 1,59,60
 239 279 239 279 241 283 c 0,61,62
 253 314 253 314 263 364 c 0,63,64
 280 444 280 444 310 495 c 0,65,66
 318 513 318 513 363 537 c 2,67,-1
 371 540 l 1,68,-1
 379 539 l 2,69,70
 418 534 418 534 441 509 c 0,71,72
 464 489 464 489 479 406 c 0,73,74
 488 360 488 360 493 337 c 1,75,76
 496 349 496 349 499 362 c 0,77,0
 519 456 519 456 524 541.5 c 128,-1,1
EndSplineSet
EndChar

StartChar: X
Encoding: 88 88 58
Width: 711
Flags: W
LayerCount: 2
Fore
SplineSet
524 745 m 2,0,1
 549 766 549 766 575 766 c 0,2,3
 609 766 609 766 629 746 c 0,4,5
 649 727 649 727 649 698 c 0,6,7
 649 684 649 684 641 664 c 1,8,9
 602 587 602 587 558 516 c 0,10,11
 511 445 511 445 460 367 c 1,12,13
 505 303 505 303 566 220 c 0,14,15
 624 137 624 137 655 90 c 1,16,17
 661 74 661 74 661 60 c 0,18,19
 661 30 661 30 640 11 c 0,20,21
 620 -9 620 -9 589.5 -9 c 128,-1,22
 559 -9 559 -9 530 19 c 1,23,24
 468 102 468 102 438 150 c 128,-1,25
 408 198 408 198 363 262 c 1,26,27
 310 201 310 201 281 155 c 0,28,29
 244 95 244 95 166 14 c 1,30,31
 141 -1 141 -1 121 -5 c 1,32,-1
 119 -5 l 2,33,34
 89 -5 89 -5 69 15 c 0,35,36
 49 33 49 33 50 62 c 0,37,38
 50 85 50 85 64 107 c 0,39,40
 123 197 123 197 168 256 c 0,41,42
 218 315 218 315 261 372 c 1,43,44
 198 449 198 449 152 522 c 0,45,46
 109 594 109 594 76 647 c 0,47,48
 63 659 63 659 57 673.5 c 128,-1,49
 51 688 51 688 51 701 c 0,50,51
 51 728 51 728 71 748 c 0,52,53
 90 768 90 768 121 768 c 2,54,-1
 121 768 l 1,55,56
 149 766 149 766 172 750 c 2,57,-1
 175 748 l 1,58,59
 233 672 233 672 274.5 608.5 c 128,-1,60
 316 545 316 545 360 483 c 1,61,62
 401 547 401 547 430 596 c 128,-1,63
 459 645 459 645 521 743 c 1,64,-1
 524 745 l 2,0,1
EndSplineSet
EndChar

StartChar: Y
Encoding: 89 89 59
Width: 711
Flags: W
LayerCount: 2
Fore
SplineSet
433 24 m 2,0,-1
 433 23 l 1,1,2
 430 14 430 14 406 9 c 0,3,4
 381 -11 381 -11 352 -11 c 128,-1,5
 323 -11 323 -11 300 7 c 0,6,7
 276 24 276 24 270 60 c 1,8,-1
 270 61 l 2,9,10
 270 133 270 133 269.5 202.5 c 128,-1,11
 269 272 269 272 269 342 c 1,12,13
 195 422 195 422 128 499 c 0,14,15
 66 577 66 577 22 670 c 1,16,-1
 22 671 l 2,17,18
 22 672 22 672 21 675 c 0,19,20
 17 683 17 683 16 691 c 0,21,22
 16 724 16 724 37 743 c 0,23,24
 58 764 58 764 86 764 c 0,25,-1
 87 764 l 2,26,27
 126 762 126 762 154 726 c 1,28,29
 202 655 202 655 249 587 c 128,-1,30
 296 519 296 519 348 455 c 1,31,-1
 446 577 l 2,32,33
 502 648 502 648 557 726 c 0,34,35
 571 748 571 748 589.5 758.5 c 128,-1,36
 608 769 608 769 626 769 c 0,37,38
 653 769 653 769 675 749.5 c 128,-1,39
 697 730 697 730 697 697 c 0,40,41
 697 682 697 682 688 660 c 1,42,43
 623 560 623 560 564 480 c 2,44,-1
 431 313 l 1,45,-1
 431 173 l 2,46,47
 432 99 432 99 433 24 c 2,0,-1
EndSplineSet
EndChar

StartChar: Z
Encoding: 90 90 60
Width: 711
Flags: W
LayerCount: 2
Fore
SplineSet
373 624 m 2,0,1
 323 624 323 624 244 622 c 2,2,-1
 163 620 l 2,3,4
 142 620 142 620 130 622 c 0,5,6
 96 627 96 627 76 645 c 128,-1,7
 56 663 56 663 56 690 c 128,-1,8
 56 717 56 717 76.5 739 c 128,-1,9
 97 761 97 761 136 763 c 1,10,11
 173 760 173 760 211 761 c 2,12,-1
 290 761 l 2,13,14
 397 761 397 761 447 763.5 c 128,-1,15
 497 766 497 766 598 766 c 2,16,-1
 601 766 l 1,17,18
 663 748 663 748 663 698 c 0,19,20
 663 672 663 672 644 649 c 1,21,22
 595 536 595 536 523 450 c 0,23,24
 445 364 445 364 399 286 c 1,25,26
 367 252 367 252 333 209.5 c 128,-1,27
 299 167 299 167 271 139 c 1,28,29
 281 139 281 139 316 136 c 128,-1,30
 351 133 351 133 396 133 c 2,31,-1
 425 132 l 1,32,33
 490 132 490 132 587 153 c 1,34,-1
 590 153 l 2,35,36
 595 153 595 153 599 153 c 0,37,38
 629 153 629 153 647.5 135 c 128,-1,39
 666 117 666 117 669 91 c 1,40,-1
 669 90 l 2,41,42
 669 71 669 71 658.5 54.5 c 128,-1,43
 648 38 648 38 623 24 c 1,44,45
 591 16 591 16 563 10 c 0,46,47
 533 4 533 4 500 1 c 0,48,49
 479 -2 479 -2 457 -1 c 2,50,-1
 418 -1 l 2,51,52
 344 -1 344 -1 321.5 2 c 128,-1,53
 299 5 299 5 262.5 5 c 128,-1,54
 226 5 226 5 193 4 c 0,55,56
 163 3 163 3 130 -4 c 1,57,-1
 123 -4 l 2,58,59
 82 -4 82 -4 63 10 c 0,60,61
 53 16 53 16 52 23 c 0,62,63
 52 42 52 42 62 59 c 0,64,65
 64 66 64 66 70 72 c 0,66,67
 199 247 199 247 292 377.5 c 128,-1,68
 385 508 385 508 461 624 c 1,69,-1
 373 624 l 2,0,1
EndSplineSet
EndChar

StartChar: bracketleft
Encoding: 91 91 61
Width: 624
Flags: WO
LayerCount: 2
Fore
SplineSet
462 -129 m 1,0,-1
 277 -127 l 1,1,-1
 276 -127 l 1,2,3
 239 -123 239 -123 220 -100 c 0,4,5
 205 -82 205 -82 202 -52 c 1,6,-1
 202 729 l 5,7,8
 211 763 211 763 229 779 c 4,9,10
 248 795 248 795 280 797 c 5,11,-1
 469 797 l 5,12,13
 503 786 503 786 518 766 c 132,-1,14
 533 746 533 746 533 724 c 4,15,16
 533 699 533 699 515 678 c 132,-1,17
 497 657 497 657 464 651 c 5,18,-1
 348 651 l 5,19,-1
 348 18 l 1,20,-1
 469 17 l 1,21,22
 503 6 503 6 518 -14 c 128,-1,23
 533 -34 533 -34 533 -56 c 0,24,25
 533 -81 533 -81 515 -102 c 128,-1,26
 497 -123 497 -123 464 -129 c 1,27,-1
 462 -129 l 1,0,-1
EndSplineSet
EndChar

StartChar: backslash
Encoding: 92 92 62
Width: 624
Flags: W
LayerCount: 2
Fore
SplineSet
64 803 m 1,0,-1
 63 814 l 1,1,2
 63 849 63 849 84 870 c 128,-1,3
 105 891 105 891 132 891 c 0,4,5
 172 891 172 891 199 853 c 1,6,-1
 201 849 l 1,7,8
 295 636 295 636 389 427 c 2,9,-1
 579 2 l 1,10,11
 584 -13 584 -13 584 -27 c 0,12,13
 584 -60 584 -60 563 -81 c 0,14,15
 542 -101 542 -101 514 -101 c 0,16,17
 494 -101 494 -101 475 -88 c 0,18,19
 455 -76 455 -76 443 -52 c 2,20,-1
 335 190 l 1,21,-1
 64 798 l 1,22,-1
 64 803 l 1,0,-1
EndSplineSet
EndChar

StartChar: bracketright
Encoding: 93 93 63
Width: 624
Flags: W
LayerCount: 2
Fore
SplineSet
273 -129 m 1,0,-1
 458 -127 l 1,1,-1
 459 -127 l 1,2,3
 496 -123 496 -123 515 -100 c 0,4,5
 530 -82 530 -82 533 -52 c 1,6,-1
 533 729 l 5,7,8
 524 763 524 763 506 779 c 4,9,10
 487 795 487 795 455 797 c 5,11,-1
 266 797 l 5,12,13
 232 786 232 786 217 766 c 132,-1,14
 202 746 202 746 202 724 c 4,15,16
 202 699 202 699 220 678 c 132,-1,17
 238 657 238 657 271 651 c 5,18,-1
 387 651 l 5,19,-1
 387 18 l 1,20,-1
 266 17 l 1,21,22
 232 6 232 6 217 -14 c 128,-1,23
 202 -34 202 -34 202 -56 c 0,24,25
 202 -81 202 -81 220 -102 c 128,-1,26
 238 -123 238 -123 271 -129 c 1,27,-1
 273 -129 l 1,0,-1
EndSplineSet
EndChar

StartChar: asciicircum
Encoding: 94 94 64
Width: 624
Flags: W
LayerCount: 2
Fore
SplineSet
575 512 m 0,0,1
 575 471 575 471 554 456 c 0,2,3
 537 444 537 444 500 444 c 0,4,5
 454 444 454 444 427 484 c 1,6,-1
 314 616 l 1,7,-1
 197 487 l 1,8,9
 169 450 169 450 126 450 c 0,10,11
 89 450 89 450 72 462 c 0,12,13
 52 477 52 477 52 518 c 0,14,15
 52 549 52 549 74 577 c 1,16,17
 144 643 144 643 217 732 c 1,18,19
 270 785 270 785 316 785 c 0,20,21
 361 785 361 785 412 729 c 1,22,-1
 556 568 l 1,23,24
 575 542 575 542 575 512 c 0,0,1
EndSplineSet
EndChar

StartChar: underscore
Encoding: 95 95 65
Width: 624
Flags: W
LayerCount: 2
Fore
SplineSet
58 -124 m 1,0,1
 21 -121 21 -121 2 -99 c 128,-1,2
 -17 -77 -17 -77 -17 -50 c 0,3,4
 -17 -24 -17 -24 3 -3 c 128,-1,5
 23 18 23 18 61 22 c 1,6,-1
 576 22 l 1,7,8
 610 13 610 13 626 -8 c 128,-1,9
 642 -29 642 -29 641 -53 c 0,10,11
 641 -77 641 -77 624 -96 c 0,12,13
 606 -115 606 -115 572 -124 c 1,14,-1
 58 -124 l 1,0,1
EndSplineSet
EndChar

StartChar: grave
Encoding: 96 96 66
Width: 624
Flags: W
LayerCount: 2
Fore
SplineSet
495 560 m 0,0,1
 495 553 495 553 493 547 c 0,2,3
 487 521 487 521 467 501 c 0,4,5
 448 482 448 482 419 476 c 0,6,7
 410 474 410 474 401 474 c 0,8,9
 379 474 379 474 362 487 c 1,10,11
 339 510 339 510 288 551 c 0,12,13
 237 593 237 593 180 643 c 1,14,15
 160 671 160 671 160 699 c 0,16,17
 160 734 160 734 180 757 c 0,18,19
 207 787 207 787 239 788 c 0,20,21
 265 788 265 788 288 770 c 0,22,23
 430 656 430 656 472 613 c 0,24,-1
 473 612 l 1,25,26
 495 585 495 585 495 560 c 0,0,1
EndSplineSet
EndChar

StartChar: a
Encoding: 97 97 67
Width: 711
Flags: W
LayerCount: 2
Fore
SplineSet
616 484 m 1,0,-1
 616 480 l 1,1,-1
 614 308 l 2,2,3
 614 237 614 237 625 167 c 0,4,5
 626 155 626 155 649 122 c 0,6,7
 670 91 670 91 673.5 84 c 128,-1,8
 677 77 677 77 677 71 c 2,9,-1
 677 71 l 1,10,11
 689 28 689 28 658 2 c 0,12,13
 643 -12 643 -12 619 -15 c 0,14,15
 614 -16 614 -16 609 -15 c 0,16,17
 590 -15 590 -15 566 -4 c 1,18,19
 549 12 549 12 534 34 c 0,20,21
 529 41 529 41 525 47 c 1,22,23
 508 37 508 37 493 26 c 0,24,25
 464 5 464 5 423 -9 c 1,26,27
 301 -14 301 -14 278 -14 c 0,28,29
 204 -14 204 -14 155 19 c 0,30,31
 115 46 115 46 94 83 c 0,32,33
 59 142 59 142 59 207 c 0,34,35
 59 230 59 230 63 256 c 0,36,37
 72 307 72 307 83 329 c 0,38,39
 94 354 94 354 100 368 c 128,-1,40
 106 382 106 382 116 397 c 0,41,42
 133 429 133 429 156 449 c 128,-1,43
 179 469 179 469 200 480 c 0,44,45
 236 504 236 504 279 522 c 0,46,47
 299 531 299 531 339 539 c 0,48,49
 417 554 417 554 455 554 c 0,50,51
 505 554 505 554 540 542 c 0,52,53
 562 534 562 534 578 528 c 0,54,55
 603 519 603 519 614 487 c 2,56,-1
 616 484 l 1,0,-1
456 457 m 0,57,58
 455.5 457 l 0,59,60
 455 457 455 457 454 457 c 0,61,62
 447 458 447 458 428.5 453.5 c 128,-1,63
 410 449 410 449 405 447 c 0,64,65
 397 443 397 443 376 439 c 0,66,67
 350 429 350 429 301.5 402.5 c 128,-1,68
 253 376 253 376 233 343 c 0,69,70
 206 299 206 299 206 243 c 0,71,72
 206 207 206 207 219 177 c 0,73,74
 222 169 222 169 225 160 c 0,75,76
 230 155 230 155 235.5 150 c 128,-1,77
 241 145 241 145 247 140 c 0,78,79
 257 136 257 136 289 127 c 1,80,81
 312 127 312 127 331 127 c 128,-1,82
 350 127 350 127 353 127 c 0,83,84
 379 127 379 127 396 131 c 1,85,-1
 435 154 l 2,86,87
 453 164 453 164 472 187 c 1,88,89
 456 257 456 257 456 328 c 0,90,91
 456 353 456 353 456 378 c 1,92,93
 499 454 499 454 456 457 c 0,57,58
EndSplineSet
EndChar

StartChar: b
Encoding: 98 98 68
Width: 711
Flags: W
LayerCount: 2
Fore
SplineSet
80 57 m 0,0,1
 80 85 80 85 95 116 c 1,2,-1
 95 743 l 1,3,4
 102 768 102 768 122 782 c 0,5,6
 143 795 143 795 166.5 795 c 128,-1,7
 190 795 190 795 211 784 c 0,8,9
 235 772 235 772 247 746 c 1,10,-1
 247 479 l 1,11,12
 262 487 262 487 277 493 c 0,13,14
 317 516 317 516 343 520 c 0,15,16
 390 529 390 529 417 530 c 0,17,18
 465 530 465 530 536 495 c 0,19,20
 578 474 578 474 599 437 c 0,21,22
 620 398 620 398 627 359 c 0,23,24
 634 318 634 318 635 281 c 0,25,26
 635 230 635 230 627 185 c 0,27,28
 624 167 624 167 614 152 c 0,29,30
 604 133 604 133 594 115 c 0,31,32
 574 80 574 80 542 56 c 0,33,34
 474 9 474 9 367 -3 c 0,35,36
 328 -8 328 -8 318 -8 c 0,37,38
 284 -8 284 -8 247.5 -1 c 128,-1,39
 211 6 211 6 188 16 c 1,40,41
 169 9 169 9 150 9 c 0,42,43
 119 9 119 9 102 21 c 0,44,45
 80 36 80 36 80 57 c 0,0,1
462 180 m 1,46,47
 486 231 486 231 486 276 c 0,48,49
 486 315 486 315 465 357 c 0,50,51
 458 365 458 365 454 371 c 0,52,53
 450 371 450 371 447 372 c 0,54,55
 440 376 440 376 435 379 c 0,56,57
 430 380 430 380 427 380 c 0,58,59
 421 381 421 381 414.5 381.5 c 128,-1,60
 408 382 408 382 402 383 c 0,61,62
 345 376 345 376 322 358 c 0,63,64
 293 333 293 333 253 293 c 1,65,-1
 247 288 l 1,66,-1
 247 155 l 2,67,68
 248 155 248 155 253 152 c 1,69,-1
 256 150 l 2,70,71
 260 149 260 149 263 148 c 0,72,73
 314 137 314 137 333 136 c 0,74,75
 394 136 394 136 462 180 c 1,46,47
EndSplineSet
EndChar

StartChar: c
Encoding: 99 99 69
Width: 711
Flags: W
LayerCount: 2
Fore
SplineSet
608 100 m 0,0,1
 608 60 608 60 587 23 c 1,2,3
 509 -18 509 -18 372 -18 c 0,4,5
 347 -18 347 -18 319 -15 c 0,6,7
 233 -6 233 -6 177 29 c 0,8,9
 126 64 126 64 101 124 c 0,10,11
 75 184 75 184 75 248 c 0,12,13
 75 318 75 318 106 389 c 0,14,15
 132 449 132 449 177 495 c 0,16,17
 226 540 226 540 297 560 c 0,18,19
 333 570 333 570 380.5 570 c 128,-1,20
 428 570 428 570 490 558 c 1,21,22
 530 547 530 547 560 530.5 c 128,-1,23
 590 514 590 514 618 488 c 1,24,25
 637 469 637 469 637 450 c 0,26,27
 637 415 637 415 621 391 c 0,28,29
 605 368 605 368 580 362 c 0,30,31
 573 360 573 360 566 360 c 0,32,33
 546 360 546 360 522 375 c 1,34,35
 478 413 478 413 441 419 c 0,36,37
 427 421 427 421 406 421 c 128,-1,38
 385 421 385 421 353 413 c 0,39,40
 306 403 306 403 280 380 c 0,41,42
 254 357 254 357 239 326 c 0,43,44
 224 288 224 288 225 246 c 0,45,46
 225 210 225 210 243 178 c 0,47,48
 258 154 258 154 282 143 c 0,49,50
 311 129 311 129 345 129 c 0,51,52
 371 129 371 129 413 137 c 0,53,54
 454 145 454 145 477 164 c 1,55,56
 508 191 508 191 539 191 c 0,57,58
 568 191 568 191 588 164.5 c 128,-1,59
 608 138 608 138 608 100 c 0,0,1
EndSplineSet
EndChar

StartChar: d
Encoding: 100 100 70
Width: 711
Flags: W
LayerCount: 2
Fore
SplineSet
634 19 m 0,0,1
 615 2 615 2 588 2 c 0,2,3
 551 2 551 2 519 38 c 1,4,5
 481 14 481 14 430 -2 c 128,-1,6
 379 -18 379 -18 330 -18 c 0,7,8
 272 -18 272 -18 210 7 c 0,9,10
 153 31 153 31 118 76 c 0,11,12
 92 110 92 110 80.5 151.5 c 128,-1,13
 69 193 69 193 69 235 c 0,14,15
 69 314 69 314 108 394 c 0,16,17
 125 428 125 428 156 454 c 0,18,19
 219 505 219 505 306 521 c 0,20,21
 342 528 342 528 363 529 c 0,22,23
 369 529 369 529 374 528 c 0,24,25
 450 528 450 528 482 523 c 1,26,27
 480 697 480 697 480 730 c 2,28,-1
 480 732 l 1,29,30
 488 765 488 765 511 783 c 0,31,32
 535 802 535 802 558.5 801.5 c 128,-1,33
 582 801 582 801 602.5 786 c 128,-1,34
 623 771 623 771 633 737 c 1,35,-1
 633 126 l 1,36,37
 637 122 637 122 640 117 c 0,38,39
 658 94 658 94 658 71 c 0,40,41
 658 66 658 66 657 62 c 0,42,43
 653 35 653 35 634 19 c 0,0,1
481 159 m 1,44,-1
 484 163 l 1,45,-1
 484 276 l 2,46,47
 484 324 484 324 483 368 c 0,48,49
 479 370 479 370 476.5 372 c 128,-1,50
 474 374 474 374 473 375 c 0,51,52
 440 384 440 384 403 384 c 0,53,54
 355 384 355 384 326 372 c 128,-1,55
 297 360 297 360 267 338 c 128,-1,56
 237 316 237 316 226 280 c 0,57,58
 218 252 218 252 218 230 c 0,59,60
 218 215 218 215 226 157 c 0,61,62
 231 148 231 148 235 139.5 c 128,-1,63
 239 131 239 131 244 123 c 1,64,-1
 266 104 l 1,65,66
 280 99 280 99 289 93 c 1,67,68
 316 92 316 92 334 92 c 128,-1,69
 352 92 352 92 375 95 c 0,70,71
 410 101 410 101 447 129 c 0,72,73
 449 131 449 131 481 159 c 1,44,-1
EndSplineSet
EndChar

StartChar: e
Encoding: 101 101 71
Width: 711
Flags: W
LayerCount: 2
Fore
SplineSet
542 181 m 1,0,1
 562 189 562 189 577 189 c 128,-1,2
 592 189 592 189 604 184 c 0,3,4
 630 176 630 176 643 159 c 0,5,6
 650 140 650 140 650 122 c 0,7,8
 650 112 650 112 647 104 c 0,9,10
 639 83 639 83 607 70 c 0,11,12
 464 -5 464 -5 343 -5 c 0,13,14
 314 -5 314 -5 290 -1 c 0,15,16
 242 7 242 7 188 37 c 0,17,18
 130 73 130 73 101 135 c 0,19,20
 70 200 70 200 70 267 c 128,-1,21
 70 334 70 334 97 395 c 0,22,23
 124 454 124 454 184 492 c 0,24,25
 252 531 252 531 321 550 c 0,26,27
 362 561 362 561 402.5 561 c 128,-1,28
 443 561 443 561 484 554 c 0,29,30
 525 547 525 547 556 523 c 0,31,32
 587 498 587 498 606 466 c 0,33,34
 626 432 626 432 627 396 c 0,35,36
 627 355 627 355 604.5 318 c 128,-1,37
 582 281 582 281 539 255 c 0,38,39
 452 208 452 208 323 183 c 0,40,41
 272 185 272 185 254 186 c 1,42,43
 270 166 270 166 296 149 c 0,44,45
 323 137 323 137 351 137 c 0,46,47
 355 137 355 137 359 137 c 0,48,49
 405 139 405 139 453 158 c 0,50,51
 502 169 502 169 542 181 c 1,0,1
461 407 m 0,52,53
 441 415 441 415 411 415 c 128,-1,54
 381 415 381 415 346 406 c 0,55,56
 332 403 332 403 322 399 c 1,57,-1
 321 393 l 1,58,-1
 309 388 l 2,59,60
 263 374 263 374 241 350 c 0,61,62
 228 328 228 328 222 305 c 1,63,64
 241 310 241 310 253 312.5 c 128,-1,65
 265 315 265 315 287 326 c 1,66,67
 303 332 303 332 335 339 c 0,68,69
 406 347 406 347 450 358 c 0,70,71
 466 369 466 369 473 381 c 0,72,73
 473 388 473 388 473 395 c 0,74,75
 473 404 473 404 461 407 c 0,52,53
EndSplineSet
EndChar

StartChar: f
Encoding: 102 102 72
Width: 711
Flags: W
LayerCount: 2
Fore
SplineSet
532 364.5 m 128,-1,1
 496 361 496 361 462 361 c 2,2,-1
 427 362 l 2,3,4
 417 362 417 362 408 362 c 1,5,-1
 408 54 l 1,6,-1
 408 53 l 2,7,8
 406 18 406 18 382 -1 c 0,9,10
 357 -21 357 -21 327 -21 c 128,-1,11
 297 -21 297 -21 273 -3 c 0,12,13
 249 14 249 14 243 49 c 1,14,-1
 243 358 l 1,15,-1
 140 358 l 1,16,17
 103 363 103 363 84.5 382.5 c 128,-1,18
 66 402 66 402 66 425.5 c 128,-1,19
 66 449 66 449 86.5 471 c 128,-1,20
 107 493 107 493 145 493 c 2,21,-1
 243 493 l 1,22,-1
 243 543 l 2,23,24
 243 591 243 591 260.5 632 c 128,-1,25
 278 673 278 673 308.5 703 c 128,-1,26
 339 733 339 733 381.5 749.5 c 128,-1,27
 424 766 424 766 475 767 c 0,28,29
 483 768 483 768 492 768 c 0,30,31
 516 768 516 768 556 759 c 0,32,33
 621 743 621 743 667 703 c 0,34,35
 694 680 694 680 694 649 c 128,-1,36
 694 618 694 618 674 598 c 128,-1,37
 654 578 654 578 624 578 c 2,38,-1
 620 578 l 1,39,40
 607 582 607 582 594 585 c 0,41,42
 572 589 572 589 552 606 c 0,43,44
 544 613 544 613 529 615 c 128,-1,45
 514 617 514 617 474 621 c 0,46,47
 449 621 449 621 432.5 605 c 128,-1,48
 416 589 416 589 408 550 c 1,49,-1
 408 497 l 1,50,51
 437 498 437 498 475.5 498.5 c 128,-1,52
 514 499 514 499 559 500 c 1,53,54
 594 492 594 492 610 473 c 128,-1,55
 626 454 626 454 626 432 c 0,56,57
 626 397 626 397 593 381 c 0,58,0
 568 368 568 368 532 364.5 c 128,-1,1
EndSplineSet
EndChar

StartChar: g
Encoding: 103 103 73
Width: 711
Flags: W
LayerCount: 2
Fore
SplineSet
80 -164 m 0,0,1
 80 -139 80 -139 89 -119 c 0,2,3
 101 -93 101 -93 125 -80 c 0,4,5
 137 -74 137 -74 151 -74 c 128,-1,6
 165 -74 165 -74 184 -80 c 1,7,8
 205 -91 205 -91 218 -99 c 0,9,10
 245 -112 245 -112 262 -116 c 0,11,12
 279 -120 279 -120 299 -124 c 0,13,14
 319 -127 319 -127 346 -127 c 0,15,16
 405 -127 405 -127 447 -108 c 0,17,18
 467 -100 467 -100 478 -87 c 0,19,20
 485 -80 485 -80 486 -68 c 0,21,22
 487 -50 487 -50 487 -34 c 2,23,-1
 487 42 l 1,24,25
 461 28 461 28 427 16 c 1,26,27
 374 7 374 7 340 6.5 c 128,-1,28
 306 6 306 6 277 11 c 0,29,30
 195 22 195 22 145 63 c 0,31,32
 97 105 97 105 73 161 c 0,33,34
 49 219 49 219 49 266 c 0,35,36
 49 314 49 314 71 367 c 0,37,38
 90 412 90 412 126.5 449.5 c 128,-1,39
 163 487 163 487 215 509 c 0,40,41
 278 535 278 535 347 535 c 0,42,43
 401 535 401 535 450 517 c 0,44,45
 481 504 481 504 510 490 c 1,46,47
 518 499 518 499 528 504 c 0,48,49
 544 511 544 511 562 510 c 0,50,51
 588 510 588 510 608 499 c 0,52,53
 628 486 628 486 637 462 c 1,54,-1
 637 -30 l 2,55,56
 637 -97 637 -97 615 -147 c 0,57,58
 593 -195 593 -195 529 -231 c 0,59,60
 462 -266 462 -266 399 -271 c 0,61,62
 326 -278 326 -278 259 -266 c 0,63,64
 210 -257 210 -257 177 -244 c 0,65,66
 147 -229 147 -229 109 -207 c 1,67,68
 80 -187 80 -187 80 -164 c 0,0,1
487 344 m 1,69,70
 425 377 425 377 367 387 c 1,71,-1
 307 383 l 1,72,73
 297 380 297 380 288 376 c 0,74,75
 278 372 278 372 268 368 c 0,76,77
 206 321 206 321 200 274 c 0,78,79
 199 266 199 266 199 259 c 0,80,81
 199 220 199 220 230 191 c 0,82,83
 236 185 236 185 243 180 c 0,84,85
 250 177 250 177 256 174 c 0,86,87
 310 163 310 163 331 162 c 0,88,89
 412 162 412 162 487 203 c 1,90,-1
 487 344 l 1,69,70
EndSplineSet
EndChar

StartChar: h
Encoding: 104 104 74
Width: 711
Flags: W
LayerCount: 2
Fore
SplineSet
640 191 m 2,0,-1
 640 113 l 2,1,2
 640 74 640 74 641 35 c 2,3,-1
 641 34 l 1,4,5
 639 7 639 7 618 -8 c 0,6,7
 596 -23 596 -23 569.5 -23 c 128,-1,8
 543 -23 543 -23 521 -10 c 0,9,10
 497 4 497 4 491 31 c 1,11,-1
 491 148 l 2,12,13
 491 206 491 206 489 265 c 0,14,15
 488 307 488 307 474 348 c 0,16,17
 460 377 460 377 422 392 c 0,18,19
 415 393 415 393 406 392.5 c 128,-1,20
 397 392 397 392 383 388 c 0,21,22
 351 376 351 376 332 359 c 1,23,24
 312 345 312 345 274 310 c 0,25,26
 248 280 248 280 230 241 c 1,27,-1
 230 39 l 1,28,-1
 230 39 l 2,29,30
 228 12 228 12 203 -3 c 0,31,32
 181 -18 181 -18 154.5 -18 c 128,-1,33
 128 -18 128 -18 107 -5 c 0,34,35
 85 9 85 9 80 36 c 1,36,-1
 80 727 l 1,37,38
 87 752 87 752 107 766 c 0,39,40
 128 779 128 779 151.5 779 c 128,-1,41
 175 779 175 779 195 768 c 0,42,43
 217 756 217 756 230 730 c 1,44,-1
 230 470 l 1,45,46
 262 497 262 497 290 513 c 0,47,48
 318 528 318 528 356 534 c 0,49,50
 386 538 386 538 390 538 c 0,51,52
 426 538 426 538 475 527 c 0,53,54
 523 516 523 516 554 491 c 0,55,56
 613 441 613 441 633 362 c 0,57,58
 640 333 640 333 640 293 c 0,59,60
 640 281 640 281 639 269 c 0,61,62
 640 230 640 230 640 191 c 2,0,-1
EndSplineSet
EndChar

StartChar: i
Encoding: 105 105 75
Width: 711
Flags: W
LayerCount: 2
Fore
SplineSet
142 683 m 128,-1,1
 142 723 142 723 171 751.5 c 128,-1,2
 200 780 200 780 237 780 c 0,3,4
 277 780 277 780 319.5 751.5 c 128,-1,5
 362 723 362 723 362 682.5 c 128,-1,6
 362 642 362 642 319 615.5 c 128,-1,7
 276 589 276 589 237 589 c 0,8,9
 201 589 201 589 171.5 616 c 128,-1,0
 142 643 142 643 142 683 c 128,-1,1
161 429 m 1,10,-1
 161 511 l 1,11,-1
 162 514 l 2,12,13
 171 538 171 538 191 547 c 0,14,15
 212 558 212 558 234.5 558 c 128,-1,16
 257 558 257 558 281 549 c 0,17,18
 321 536 321 536 323 504 c 1,19,-1
 323 503 l 2,20,21
 321 386 321 386 321 307.5 c 128,-1,22
 321 229 321 229 323 188 c 1,23,24
 321 175 321 175 321 168 c 128,-1,25
 321 161 321 161 324 155 c 1,26,27
 323 148 323 148 322.5 143.5 c 128,-1,28
 322 139 322 139 326 136 c 0,29,30
 336 129 336 129 340 128 c 2,31,-1
 340 128 l 2,32,33
 355 129 355 129 403 146 c 0,34,35
 430 155 430 155 451 165 c 1,36,37
 469 172 469 172 485 172 c 0,38,39
 524 172 524 172 550 137 c 0,40,41
 561 122 561 122 560 100 c 0,42,43
 560 69 560 69 532 52 c 0,44,45
 432 -10 432 -10 332 -9 c 0,46,47
 319 -9 319 -9 308 -9 c 0,48,49
 254 -3 254 -3 231 13 c 0,50,51
 208 28 208 28 193 45 c 1,52,53
 170 74 170 74 166 97 c 0,54,55
 161 130 161 130 161 171 c 0,56,57
 160 252 160 252 160 317 c 128,-1,58
 160 382 160 382 161 429 c 1,10,-1
EndSplineSet
EndChar

StartChar: j
Encoding: 106 106 76
Width: 711
Flags: W
LayerCount: 2
Fore
SplineSet
76 -142 m 1,0,1
 65 -118 65 -118 65 -98 c 0,2,3
 65 -68 65 -68 84.5 -47.5 c 128,-1,4
 104 -27 104 -27 133 -27 c 2,5,-1
 134 -27 l 1,6,7
 161 -29 161 -29 185 -46 c 1,8,9
 201 -59 201 -59 210.5 -69 c 128,-1,10
 220 -79 220 -79 222.5 -82.5 c 128,-1,11
 225 -86 225 -86 234.5 -94 c 128,-1,12
 244 -102 244 -102 262 -108 c 0,13,14
 269 -110 269 -110 294.5 -110 c 128,-1,15
 320 -110 320 -110 364 -106 c 1,16,17
 391 -99 391 -99 401 -82 c 0,18,19
 414 -59 414 -59 413 -31 c 0,20,21
 414 -14 414 -14 414 3 c 0,22,23
 414 409 414 409 403 506 c 0,24,25
 402 509 402 509 402 511 c 128,-1,26
 402 513 402 513 402 514 c 0,27,28
 402 541 402 541 424 558 c 0,29,30
 447 576 447 576 484 576 c 0,31,32
 518 576 518 576 538 558 c 0,33,34
 558 541 558 541 558 507 c 0,35,36
 558 505 558 505 558 503 c 2,37,-1
 567 -35 l 1,38,39
 564 -89 564 -89 554 -117 c 128,-1,40
 544 -145 544 -145 526 -172 c 0,41,42
 514 -193 514 -193 497 -206 c 128,-1,43
 480 -219 480 -219 462 -230 c 0,44,45
 416 -254 416 -254 264 -254 c 2,46,-1
 263 -254 l 1,47,48
 190 -248 190 -248 157 -221 c 0,49,50
 128 -198 128 -198 76 -142 c 1,0,1
407 765.5 m 128,-1,52
 444 794 444 794 485 794 c 0,53,54
 523 794 523 794 553 765.5 c 128,-1,55
 583 737 583 737 583 696.5 c 128,-1,56
 583 656 583 656 552.5 629 c 128,-1,57
 522 602 522 602 485 602 c 0,58,59
 445 602 445 602 407.5 629 c 128,-1,60
 370 656 370 656 370 696.5 c 128,-1,51
 370 737 370 737 407 765.5 c 128,-1,52
EndSplineSet
EndChar

StartChar: k
Encoding: 107 107 77
Width: 711
Flags: W
LayerCount: 2
Fore
SplineSet
82 43 m 1,0,-1
 82 751 l 1,1,2
 89 776 89 776 109 789 c 0,3,4
 130 802 130 802 153.5 802 c 128,-1,5
 177 802 177 802 198 792 c 0,6,7
 220 780 220 780 232 754 c 1,8,-1
 232 396 l 1,9,10
 258 403 258 403 284 421 c 0,11,12
 328 447 328 447 362 472 c 0,13,14
 395 497 395 497 430 525 c 0,15,16
 464 552 464 552 503 579 c 0,17,18
 533 595 533 595 563 596 c 0,19,20
 594 596 594 596 613 583 c 0,21,22
 634 568 634 568 634 548 c 0,23,24
 634 530 634 530 613 514 c 0,25,26
 564 433 564 433 505 381 c 0,27,28
 460 362 460 362 419 345 c 1,29,-1
 663 107 l 1,30,31
 681 75 681 75 680 44 c 0,32,33
 680 41 680 41 680 37 c 0,34,35
 676 17 676 17 657 4 c 0,36,37
 638 -7 638 -7 610 -7 c 0,38,39
 579 -7 579 -7 551 14 c 1,40,41
 475 88 475 88 410 151 c 0,42,43
 345 208 345 208 275 268 c 1,44,45
 260 265 260 265 251.5 262 c 128,-1,46
 243 259 243 259 232 256 c 1,47,-1
 232 23 l 1,48,-1
 232 23 l 2,49,50
 230 10 230 10 206 3 c 0,51,52
 184 -12 184 -12 157.5 -12 c 128,-1,53
 131 -12 131 -12 109 1 c 0,54,55
 87 15 87 15 82 43 c 1,0,-1
EndSplineSet
EndChar

StartChar: l
Encoding: 108 108 78
Width: 711
Flags: W
LayerCount: 2
Fore
SplineSet
348 110 m 0,0,1
 364 110 364 110 395 120 c 0,2,3
 427 136 427 136 462 154 c 0,4,5
 498 184 498 184 524 184 c 0,6,7
 558 184 558 184 582 147 c 0,8,9
 596 123 596 123 596 96 c 0,10,11
 596 83 596 83 583 67 c 1,12,13
 547 32 547 32 497 -2 c 0,14,15
 438 -34 438 -34 336 -36 c 1,16,17
 290 -33 290 -33 260 -20 c 0,18,19
 230 -6 230 -6 208 13 c 1,20,21
 178 54 178 54 175 85 c 0,22,23
 173 105 173 105 173 116 c 0,24,25
 173 129 173 129 174 138 c 0,26,27
 173 157 173 157 172 180 c 0,28,29
 172 264 172 264 174 364 c 0,30,31
 172 561 172 561 175 747 c 1,32,33
 183 769 183 769 204 778 c 0,34,35
 222 787 222 787 247 789 c 0,36,37
 251 789 251 789 255 790 c 0,38,39
 279 790 279 790 302 778 c 0,40,41
 336 765 336 765 336 749 c 2,42,-1
 336 749 l 1,43,44
 333 498 333 498 335 381 c 2,45,-1
 335 122 l 2,46,47
 337 113 337 113 341 107 c 1,48,49
 344 110 344 110 348 110 c 0,0,1
EndSplineSet
EndChar

StartChar: m
Encoding: 109 109 79
Width: 711
Flags: W
LayerCount: 2
Fore
SplineSet
50 364 m 1,0,1
 48 427 48 427 48 436.5 c 128,-1,2
 48 446 48 446 48 447 c 0,3,4
 48 515 48 515 61 539 c 0,5,6
 65 543 65 543 70 546 c 0,7,8
 97 579 97 579 153 579 c 0,9,10
 190 579 190 579 213 565 c 0,11,12
 232 552 232 552 248 534 c 0,13,14
 296 471 296 471 364 369 c 1,15,16
 397 421 397 421 425 459 c 0,17,18
 453 492 453 492 470 506 c 1,19,20
 524 535 524 535 568 534 c 0,21,22
 610 534 610 534 636 508 c 0,23,24
 659 482 659 482 662 447 c 0,25,26
 664 424 664 424 664 408 c 0,27,28
 664 391 664 391 663 381 c 2,29,-1
 663 30 l 1,30,-1
 663 30 l 2,31,32
 661 2 661 2 639 -13 c 0,33,34
 617 -28 617 -28 590.5 -27.5 c 128,-1,35
 564 -27 564 -27 543 -14 c 0,36,37
 520 0 520 0 514 28 c 1,38,-1
 515 328 l 1,39,-1
 447 237 l 1,40,41
 404 194 404 194 354 194 c 0,42,43
 317 194 317 194 283 227 c 0,44,45
 266 242 266 242 249.5 270.5 c 128,-1,46
 233 299 233 299 201 341 c 1,47,48
 201 306 201 306 201 259 c 0,49,50
 202 77 202 77 199 44 c 0,51,52
 195 17 195 17 172 1 c 0,53,54
 151 -14 151 -14 124 -14 c 128,-1,55
 97 -14 97 -14 76 -1 c 0,56,57
 55 13 55 13 50 41 c 1,58,-1
 50 364 l 1,0,1
EndSplineSet
EndChar

StartChar: n
Encoding: 110 110 80
Width: 711
Flags: W
LayerCount: 2
Fore
SplineSet
543 537 m 0,0,1
 589 515 589 515 617 465 c 0,2,3
 634 437 634 437 635 378 c 0,4,5
 635 359 635 359 633 271 c 1,6,-1
 633 57 l 1,7,-1
 633 56 l 2,8,9
 631 21 631 21 609 3 c 0,10,11
 587 -17 587 -17 560.5 -17 c 128,-1,12
 534 -17 534 -17 513 1 c 0,13,14
 489 18 489 18 483 51 c 1,15,-1
 483 53 l 1,16,-1
 482 259 l 1,17,-1
 482 341 l 2,18,19
 482 372 482 372 477 402 c 0,20,21
 471 410 471 410 467 411 c 0,22,23
 457 414 457 414 443 413 c 2,24,-1
 441 413 l 2,25,26
 435 414 435 414 432 414 c 0,27,28
 401 414 401 414 353 373 c 0,29,30
 292 321 292 321 229 260 c 0,31,32
 224 248 224 248 223.5 235.5 c 128,-1,33
 223 223 223 223 220 186 c 0,34,35
 220 124 220 124 222.5 106 c 128,-1,36
 225 88 225 88 226 23 c 2,37,-1
 226 23 l 1,38,39
 224 13 224 13 199 8 c 0,40,41
 177 -12 177 -12 150.5 -12 c 128,-1,42
 124 -12 124 -12 102 6 c 0,43,44
 81 23 81 23 76 57 c 1,45,-1
 76 166 l 1,46,-1
 75 372 l 1,47,-1
 75 482 l 1,48,49
 83 513 83 513 103 529 c 0,50,51
 122 547 122 547 147 547 c 128,-1,52
 172 547 172 547 192 531 c 0,53,54
 206 521 206 521 211 499 c 128,-1,55
 216 477 216 477 217 447 c 1,56,57
 245 472 245 472 279 501 c 0,58,59
 349 561 349 561 431 561 c 0,60,61
 495 561 495 561 543 537 c 0,0,1
EndSplineSet
EndChar

StartChar: o
Encoding: 111 111 81
Width: 711
Flags: W
LayerCount: 2
Fore
SplineSet
332 563 m 0,0,1
 366 570 366 570 397 569 c 0,2,3
 450 569 450 569 495 550 c 0,4,5
 558 522 558 522 593 470.5 c 128,-1,6
 628 419 628 419 640 354 c 0,7,8
 644 328 644 328 644 296.5 c 128,-1,9
 644 265 644 265 634 229 c 0,10,11
 614 157 614 157 563 94 c 0,12,13
 511 31 511 31 422 3 c 0,14,15
 369 -15 369 -15 318 -16 c 0,16,17
 304 -16 304 -16 291 -14 c 0,18,19
 228 -8 228 -8 179 21 c 0,20,21
 136 50 136 50 106 96 c 128,-1,22
 76 142 76 142 65 200 c 0,23,24
 60 228 60 228 60 246 c 128,-1,25
 60 264 60 264 61 285 c 0,26,27
 63 314 63 314 73 358 c 1,28,29
 106 454 106 454 159 514 c 0,30,31
 228 552 228 552 332 563 c 0,0,1
264.5 400.5 m 128,-1,33
 235 362 235 362 217 317 c 1,34,35
 209 281 209 281 209 263 c 0,36,37
 209 247 209 247 212 228 c 0,38,39
 216 199 216 199 233 177 c 0,40,41
 267 132 267 132 321 132 c 0,42,43
 351 132 351 132 382 148 c 0,44,45
 424 170 424 170 449.5 206.5 c 128,-1,46
 475 243 475 243 489 286 c 0,47,48
 495 307 495 307 495 325 c 0,49,50
 495 384 495 384 467 424 c 0,51,52
 448 451 448 451 417 462 c 0,53,54
 405 466 405 466 387.5 466 c 128,-1,55
 370 466 370 466 345 457 c 0,56,32
 294 439 294 439 264.5 400.5 c 128,-1,33
EndSplineSet
EndChar

StartChar: p
Encoding: 112 112 82
Width: 711
Flags: W
LayerCount: 2
Fore
SplineSet
441.5 26.5 m 128,-1,1
 372 6 372 6 282 6 c 0,2,3
 255 6 255 6 227 8 c 1,4,-1
 227 -230 l 1,5,-1
 227 -231 l 2,6,7
 225 -269 225 -269 200 -289 c 0,8,9
 178 -309 178 -309 151.5 -309.5 c 128,-1,10
 125 -310 125 -310 103.5 -291.5 c 128,-1,11
 82 -273 82 -273 77 -236 c 1,12,-1
 77 488 l 1,13,14
 85 520 85 520 105 537 c 0,15,16
 124 555 124 555 149 554.5 c 128,-1,17
 174 554 174 554 195 539 c 0,18,19
 209 529 209 529 218 512 c 1,20,21
 243 525 243 525 270 533 c 0,22,23
 317 546 317 546 362 546 c 0,24,25
 425 546 425 546 478 522 c 0,26,27
 529 500 529 500 563 464 c 128,-1,28
 597 428 597 428 615.5 380.5 c 128,-1,29
 634 333 634 333 634 276 c 128,-1,30
 634 219 634 219 613 169.5 c 128,-1,31
 592 120 592 120 551.5 83.5 c 128,-1,0
 511 47 511 47 441.5 26.5 c 128,-1,1
227 332 m 1,32,-1
 227 154 l 1,33,34
 258 150 258 150 282 150 c 0,35,36
 374 150 374 150 431 183 c 0,37,38
 487 216 487 216 487 274 c 0,39,40
 487 297 487 297 477.5 320 c 128,-1,41
 468 343 468 343 451 362 c 0,42,43
 414 402 414 402 368 402 c 0,44,45
 316 402 316 402 264 363 c 0,46,47
 249 352 249 352 241 344 c 128,-1,48
 233 336 233 336 227 332 c 1,32,-1
EndSplineSet
EndChar

StartChar: q
Encoding: 113 113 83
Width: 711
Flags: W
LayerCount: 2
Fore
SplineSet
485 -239 m 1,0,-1
 485 15 l 1,1,2
 430 1 430 1 374 1 c 0,3,4
 287 1 287 1 244 12 c 0,5,6
 166 30 166 30 127 75 c 0,7,8
 66 145 66 145 66 246 c 0,9,10
 66 268 66 268 69 290 c 0,11,12
 77 349 77 349 99 399 c 0,13,14
 117 440 117 440 151 469 c 0,15,16
 221 526 221 526 333 542 c 0,17,18
 368 547 368 547 400 547 c 0,19,20
 435 547 435 547 454 546 c 0,21,22
 499 542 499 542 533 528 c 1,23,24
 558 539 558 539 586 529 c 0,25,26
 621 526 621 526 633 515 c 2,27,-1
 634 514 l 1,28,-1
 634 -234 l 1,29,-1
 634 -235 l 2,30,31
 632 -271 632 -271 612 -292 c 0,32,33
 590 -313 590 -313 563 -313 c 128,-1,34
 536 -313 536 -313 515 -295 c 0,35,36
 491 -276 491 -276 485 -239 c 1,0,-1
262 163 m 0,37,38
 309 148 309 148 364 148 c 0,39,40
 433 148 433 148 485 171 c 1,41,-1
 485 432 l 2,42,43
 485 433 485 433 484 433 c 0,44,45
 449 444 449 444 414.5 444 c 128,-1,46
 380 444 380 444 343 437 c 0,47,48
 271 423 271 423 238 369 c 0,49,50
 216 333 216 333 216 290 c 128,-1,51
 216 247 216 247 223 206 c 0,52,53
 228 200 228 200 232.5 193 c 128,-1,54
 237 186 237 186 241 179 c 0,55,56
 246 175 246 175 250 172 c 0,57,58
 254 166 254 166 262 163 c 0,37,38
EndSplineSet
EndChar

StartChar: r
Encoding: 114 114 84
Width: 711
Flags: W
LayerCount: 2
Fore
SplineSet
125 366 m 1,0,-1
 124 376 l 1,1,-1
 125 386 l 1,2,-1
 125 407 l 1,3,4
 104 418 104 418 87 436.5 c 128,-1,5
 70 455 70 455 70 475 c 0,6,7
 70 500 70 500 90 520 c 0,8,9
 110 541 110 541 143 541 c 0,10,11
 165 541 165 541 202 524 c 0,12,13
 229 512 229 512 248 493 c 1,14,15
 283 518 283 518 320 540 c 0,16,17
 374 571 374 571 516 571 c 0,18,19
 533 571 533 571 563 564 c 0,20,21
 589 557 589 557 615 543 c 128,-1,22
 641 529 641 529 662.5 504.5 c 128,-1,23
 684 480 684 480 684 447.5 c 128,-1,24
 684 415 684 415 664 395.5 c 128,-1,25
 644 376 644 376 615 376 c 0,26,27
 594 376 594 376 577 388 c 0,28,29
 566 397 566 397 556 406 c 0,30,31
 545 415 545 415 532.5 419.5 c 128,-1,32
 520 424 520 424 503 432 c 0,33,34
 491 437 491 437 476 436 c 0,35,36
 475 436 l 0,37,38
 453 436 453 436 425 427 c 0,39,40
 372 410 372 410 356 396 c 0,41,42
 335 379 335 379 314 363 c 0,43,44
 292 348 292 348 280 334 c 1,45,-1
 282 53 l 1,46,-1
 281 52 l 2,47,48
 279 18 279 18 255 0 c 0,49,50
 230 -20 230 -20 200 -20 c 0,51,52
 173 -20 173 -20 151 -1 c 0,53,54
 130 16 130 16 125 50 c 1,55,-1
 125 366 l 1,0,-1
EndSplineSet
EndChar

StartChar: s
Encoding: 115 115 85
Width: 711
Flags: W
LayerCount: 2
Fore
SplineSet
78 142 m 0,0,1
 78 151 78 151 79 161 c 0,2,3
 84 183 84 183 102 197 c 0,4,5
 119 213 119 213 145 212 c 0,6,7
 171 212 171 212 199 195 c 1,8,9
 234 176 234 176 280 153 c 0,10,11
 314 135 314 135 388 134 c 0,12,13
 399 134 399 134 410 135 c 1,14,-1
 434 140 l 1,15,16
 443 144 443 144 446 144 c 0,17,18
 449 144 449 144 450 145 c 0,19,20
 453 147 453 147 464 157 c 0,21,22
 467 161 467 161 468 180 c 0,23,24
 467 184 467 184 465 187 c 0,25,26
 457 193 457 193 453 195 c 0,27,28
 417 211 417 211 362 219 c 0,29,30
 262 234 262 234 190 268 c 0,31,32
 165 282 165 282 130 322 c 0,33,34
 103 354 103 354 102 394 c 0,35,36
 102 395 102 395 102 396 c 0,37,38
 102 464 102 464 169 524 c 0,39,40
 205 555 205 555 249 561 c 0,41,42
 314 572 314 572 408 559 c 0,43,44
 502 547 502 547 554 521 c 1,45,46
 592 502 592 502 592 474 c 0,47,48
 592 448 592 448 582 426 c 0,49,50
 568 398 568 398 541 387 c 0,51,52
 531 383 531 383 521 383 c 0,53,54
 501 383 501 383 477 396 c 0,55,56
 444 410 444 410 395 422 c 0,57,58
 374 426 374 426 349 426 c 128,-1,59
 324 426 324 426 294 421 c 0,60,61
 288 418 288 418 284 417 c 0,62,63
 280 418 280 418 279 418 c 0,64,65
 272 417 272 417 267 412 c 0,66,67
 265 412 265 412 265 413 c 0,68,69
 265 405 265 405 271 387 c 1,70,71
 273 382 273 382 279 372 c 1,72,-1
 279 365 l 1,73,74
 282 361 282 361 287 356 c 0,75,76
 315 339 315 339 364 339 c 0,77,78
 414 339 414 339 466 346 c 0,79,80
 514 332 514 332 546 310 c 0,81,82
 579 288 579 288 598.5 242.5 c 128,-1,83
 618 197 618 197 618 154 c 0,84,85
 618 130 618 130 610 109 c 0,86,87
 589 53 589 53 519 13 c 0,88,89
 500 3 500 3 475 -5 c 0,90,91
 448 -12 448 -12 424 -11 c 0,92,93
 414 -11 414 -11 403 -12 c 0,94,95
 303 -12 303 -12 214 22 c 0,96,97
 136 56 136 56 89 113 c 1,98,99
 78 129 78 129 78 142 c 0,0,1
EndSplineSet
EndChar

StartChar: t
Encoding: 116 116 86
Width: 711
Flags: W
LayerCount: 2
Fore
SplineSet
284 23 m 1,0,-1
 284 25 l 1,1,-1
 282 399 l 1,2,-1
 111 393 l 1,3,4
 74 398 74 398 55 419.5 c 128,-1,5
 36 441 36 441 36 466.5 c 128,-1,6
 36 492 36 492 56.5 515.5 c 128,-1,7
 77 539 77 539 115 539 c 2,8,-1
 282 545 l 1,9,-1
 282 633 l 1,10,11
 292 667 292 667 313.5 684.5 c 128,-1,12
 335 702 335 702 363 702 c 128,-1,13
 391 702 391 702 414 686 c 128,-1,14
 437 670 437 670 447 637 c 1,15,-1
 447 549 l 1,16,-1
 609 557 l 1,17,18
 643 548 643 548 658 528 c 0,19,20
 674 509 674 509 674 486 c 128,-1,21
 674 463 674 463 656.5 445.5 c 128,-1,22
 639 428 639 428 606 420 c 1,23,-1
 446 413 l 1,24,25
 446 378 446 378 446 342 c 2,26,-1
 448 67 l 2,27,28
 448 31 448 31 421 13 c 0,29,30
 394 -7 394 -7 365.5 -7 c 128,-1,31
 337 -7 337 -7 313 11 c 0,32,33
 290 15 290 15 284 23 c 1,0,-1
EndSplineSet
EndChar

StartChar: u
Encoding: 117 117 87
Width: 711
Flags: W
LayerCount: 2
Fore
SplineSet
443 291 m 0,0,1
 443 300 443 300 444 357 c 1,2,-1
 444 385 l 2,3,4
 444 417 444 417 451 453 c 0,5,6
 468 537 468 537 538 537 c 0,7,8
 566 537 566 537 587 516 c 0,9,10
 609 497 609 497 608 463 c 0,11,12
 608 436 608 436 603.5 390.5 c 128,-1,13
 599 345 599 345 599 311 c 128,-1,14
 599 277 599 277 603.5 240.5 c 128,-1,15
 608 204 608 204 610.5 179 c 128,-1,16
 613 154 613 154 618 128 c 128,-1,17
 623 102 623 102 627 96 c 0,18,19
 644 75 644 75 644 51 c 0,20,21
 644 50 644 50 644 49 c 0,22,23
 644 21 644 21 624 3 c 0,24,25
 604 -16 604 -16 572 -16 c 0,26,27
 526 -16 526 -16 505 21 c 0,28,29
 494 40 494 40 484 73 c 1,30,31
 463 48 463 48 444 34 c 0,32,33
 410 8 410 8 331 -10 c 1,34,-1
 328 -10 l 2,35,36
 286 -10 286 -10 241 -1 c 0,37,38
 196 7 196 7 165 28 c 0,39,40
 135 49 135 49 112.5 77 c 128,-1,41
 90 105 90 105 78 136 c 0,42,43
 59 192 59 192 60 284 c 0,44,45
 60 332 60 332 62.5 377 c 128,-1,46
 65 422 65 422 66 472 c 1,47,48
 74 503 74 503 94 519 c 0,49,50
 113 537 113 537 138 537 c 128,-1,51
 163 537 163 537 183 521 c 0,52,53
 206 507 206 507 217 477 c 1,54,-1
 217 474 l 2,55,56
 217 421 217 421 214 365.5 c 128,-1,57
 211 310 211 310 211 254 c 128,-1,58
 211 198 211 198 241 163 c 0,59,60
 268 131 268 131 313 131 c 0,61,62
 351 131 351 131 377 153 c 0,63,64
 393 167 393 167 403.5 179.5 c 128,-1,65
 414 192 414 192 434 229 c 0,66,67
 437 239 437 239 444 258 c 1,68,69
 443 283 443 283 443 291 c 0,0,1
EndSplineSet
EndChar

StartChar: v
Encoding: 118 118 88
Width: 711
Flags: W
LayerCount: 2
Fore
SplineSet
542 561 m 0,0,1
 556 565 556 565 568 566 c 0,2,3
 606 566 606 566 627 544 c 0,4,5
 640 530 640 530 641 509 c 0,6,7
 641 498 641 498 640 494 c 0,8,9
 622 425 622 425 599 359 c 2,10,-1
 553 235 l 1,11,12
 524 169 524 169 503 126 c 0,13,14
 481 81 481 81 421 8 c 0,15,-1
 420 8 l 1,16,17
 390 -16 390 -16 350 -17 c 0,18,19
 345 -17 345 -17 340 -16 c 0,20,21
 295 -12 295 -12 271 19 c 1,22,23
 213 132 213 132 162 244 c 0,24,25
 115 355 115 355 63 463 c 0,26,27
 53 489 53 489 53 513 c 0,28,29
 53 520 53 520 56 526 c 0,30,31
 65 545 65 545 86 555 c 0,32,33
 102 562 102 562 122 562 c 0,34,35
 162 562 162 562 190 534 c 1,36,-1
 192 533 l 1,37,38
 239 444 239 444 285 363 c 0,39,40
 330 287 330 287 367 221 c 1,41,42
 378 239 378 239 400 280 c 1,43,-1
 451 401 l 2,44,45
 477 463 477 463 499 531 c 1,46,-1
 500 533 l 2,47,48
 518 554 518 554 542 561 c 0,0,1
EndSplineSet
EndChar

StartChar: w
Encoding: 119 119 89
Width: 711
Flags: W
LayerCount: 2
Fore
SplineSet
580 558 m 0,0,1
 594 562 594 562 606 562 c 0,2,3
 644 562 644 562 665 540 c 0,4,5
 678 526 678 526 678 506 c 0,6,7
 678 501 678 501 678 497 c 0,8,9
 663 337 663 337 636 217 c 0,10,11
 609 104 609 104 582 20 c 1,12,-1
 579 16 l 2,13,14
 552 -8 552 -8 516.5 -8 c 128,-1,15
 481 -8 481 -8 451 12 c 2,16,-1
 448 15 l 1,17,18
 406 85 406 85 386 139 c 0,19,20
 366 195 366 195 351 259 c 1,21,22
 349 254 349 254 341 235 c 0,23,24
 333 218 333 218 316 185 c 0,25,26
 299 145 299 145 288 99 c 0,27,28
 276 59 276 59 253 11 c 1,29,-1
 251 9 l 2,30,31
 221 -15 221 -15 186 -15 c 0,32,33
 141 -15 141 -15 118 21 c 1,34,-1
 117 23 l 1,35,36
 98 99 98 99 90 156 c 0,37,38
 82 213 82 213 68 281 c 0,39,40
 54 349 54 349 45 392 c 0,41,42
 28 484 28 484 28 504 c 0,43,44
 28 523 28 523 42 536 c 0,45,46
 65 558 65 558 98 558 c 0,47,48
 117 558 117 558 136 550 c 0,49,50
 163 539 163 539 174 512 c 1,51,52
 202 339 202 339 209 306 c 1,53,54
 219 329 219 329 229 348 c 0,55,56
 239 365 239 365 251 404 c 0,57,58
 262 440 262 440 289 468 c 1,59,60
 325 494 325 494 362 494 c 0,61,62
 391 494 391 494 412 483 c 0,63,64
 434 470 434 470 444 448 c 1,65,-1
 444 448 l 1,66,67
 446 438 446 438 460 401 c 0,68,69
 475 372 475 372 481 342 c 0,70,71
 488 319 488 319 495 294 c 1,72,73
 508 357 508 357 514 394 c 0,74,75
 520 430 520 430 536 526 c 1,76,-1
 538 529 l 2,77,78
 556 551 556 551 580 558 c 0,0,1
EndSplineSet
EndChar

StartChar: x
Encoding: 120 120 90
Width: 711
Flags: W
LayerCount: 2
Fore
SplineSet
644 524 m 0,0,1
 647 518 647 518 647 512 c 0,2,3
 647 486 647 486 634 453 c 1,4,5
 587 403 587 403 551 360 c 0,6,7
 509 324 509 324 467 291 c 1,8,9
 613 118 613 118 663 55 c 1,10,11
 669 28 669 28 670 8 c 0,12,13
 670 -2 670 -2 665 -10 c 0,14,15
 655 -27 655 -27 635 -36 c 0,16,17
 619 -42 619 -42 600 -42 c 0,18,19
 568 -42 568 -42 539 -20 c 1,20,21
 491 35 491 35 443 88 c 0,22,23
 395 143 395 143 357 191 c 1,24,25
 275 102 275 102 204 23 c 0,26,27
 177 -1 177 -1 140 -2 c 0,28,29
 117 -2 117 -2 99 7 c 0,30,31
 75 18 75 18 75 39 c 0,32,33
 75 71 75 71 88 106 c 1,34,35
 135 163 135 163 170 201 c 0,36,37
 207 244 207 244 248 292 c 1,38,39
 206 329 206 329 175 356 c 0,40,41
 145 390 145 390 100 443 c 1,42,43
 74 485 74 485 74 518 c 0,44,45
 74 531 74 531 85 544 c 0,46,47
 101 561 101 561 132 564 c 0,48,49
 137 565 137 565 142 564 c 0,50,51
 167 564 167 564 192 550 c 1,52,53
 242 506 242 506 282 465 c 0,54,55
 321 422 321 422 357 387 c 1,56,57
 409 439 409 439 430 465 c 0,58,59
 451 489 451 489 516 547 c 1,60,61
 547 564 547 564 576 565 c 0,62,63
 627 565 627 565 644 524 c 0,0,1
EndSplineSet
EndChar

StartChar: y
Encoding: 121 121 91
Width: 711
Flags: W
LayerCount: 2
Fore
SplineSet
519 521 m 1,0,1
 548 567 548 567 590 567 c 0,2,3
 621 567 621 567 641 544 c 0,4,5
 661 522 661 522 661 488 c 2,6,-1
 661 485 l 1,7,8
 634 387 634 387 593 298 c 0,9,10
 519 140 519 140 387 -46 c 0,11,12
 328 -135 328 -135 270 -227 c 1,13,14
 254 -247 254 -247 234.5 -254.5 c 128,-1,15
 215 -262 215 -262 197 -262 c 0,16,17
 166 -262 166 -262 145 -242 c 0,18,19
 125 -222 125 -222 125 -188 c 2,20,-1
 125 -180 l 2,21,22
 125 -167 125 -167 129 -160 c 0,23,24
 172 -83 172 -83 219 -13 c 0,25,26
 266 52 266 52 308 114 c 1,27,28
 232 180 232 180 154 276 c 0,29,30
 85 371 85 371 39 473 c 1,31,32
 37 484 37 484 37 492 c 0,33,34
 37 518 37 518 54 536 c 0,35,36
 76 562 76 562 108 562 c 0,37,38
 131 562 131 562 152 548 c 0,39,40
 176 534 176 534 184 501 c 1,41,42
 204 456 204 456 229 418 c 0,43,44
 264 364 264 364 342 263 c 0,45,46
 361 238 361 238 386 214 c 1,47,48
 423 281 423 281 458 355.5 c 128,-1,49
 493 430 493 430 519 521 c 1,0,1
EndSplineSet
EndChar

StartChar: z
Encoding: 122 122 92
Width: 711
Flags: W
LayerCount: 2
Fore
SplineSet
258 139 m 1,0,1
 320 143 320 143 396 144 c 0,2,3
 402 144 402 144 495 144 c 0,4,5
 574 144 574 144 604 146 c 0,6,7
 606 146 606 146 608 146 c 0,8,9
 646 146 646 146 663 116 c 0,10,11
 673 98 673 98 673 78 c 0,12,13
 673 68 673 68 671 58 c 0,14,15
 663 25 663 25 635 13 c 0,16,17
 613 3 613 3 588.5 2.5 c 128,-1,18
 564 2 564 2 511 2 c 0,19,20
 456 2 456 2 387 4.5 c 128,-1,21
 318 7 318 7 289 7 c 0,22,23
 190 7 190 7 113 -5 c 1,24,-1
 110 -5 l 2,25,26
 64 1 64 1 47 34 c 0,27,28
 40 47 40 47 40 64 c 0,29,30
 40 83 40 83 54 105 c 0,31,32
 122 200 122 200 224 292 c 0,33,34
 307 364 307 364 382 431 c 1,35,36
 272 428 272 428 110 417 c 1,37,38
 88 420 88 420 75 425 c 0,39,40
 50 434 50 434 39 465 c 0,41,42
 36 473 36 473 36 481 c 0,43,44
 36 496 36 496 46 510 c 0,45,46
 60 531 60 531 92 543 c 1,47,48
 203 553 203 553 319 555 c 0,49,50
 435 557 435 557 555 554 c 1,51,-1
 558 554 l 2,52,53
 603 542 603 542 614 507 c 0,54,55
 617 498 617 498 617 489 c 0,56,57
 617 464 617 464 595 440 c 1,58,59
 507 359 507 359 416 283.5 c 128,-1,60
 325 208 325 208 258 139 c 1,0,1
EndSplineSet
EndChar

StartChar: braceleft
Encoding: 123 123 93
Width: 624
Flags: W
LayerCount: 2
Fore
SplineSet
527 -75 m 4,0,1
 527 -94 527 -94 515 -108 c 4,2,3
 506 -118 506 -118 489 -123.5 c 132,-1,4
 472 -129 472 -129 428 -129 c 4,5,6
 407 -129 407 -129 376 -128 c 5,7,8
 336 -112 336 -112 312 -95 c 4,9,10
 284 -75 284 -75 273 -34 c 4,11,12
 256 28 256 28 256 62 c 4,13,14
 256 73 256 73 258.5 84.5 c 132,-1,15
 261 96 261 96 261 139 c 132,-1,16
 261 182 261 182 247 211 c 5,17,18
 227 225 227 225 214.5 235.5 c 132,-1,19
 202 246 202 246 171 266 c 4,20,21
 131 292 131 292 128 328 c 4,22,23
 128 330 128 330 128 332 c 4,24,25
 128 368 128 368 187 405 c 4,26,27
 191 408 191 408 196 412 c 6,28,-1
 225 433 l 5,29,30
 241 443 241 443 243 444 c 4,31,32
 246 447 246 447 252 451 c 5,33,34
 256 491 256 491 259 517 c 132,-1,35
 262 543 262 543 262 582.5 c 132,-1,36
 262 622 262 622 269.5 661.5 c 132,-1,37
 277 701 277 701 304.5 730.5 c 132,-1,38
 332 760 332 760 361 774 c 4,39,40
 383 784 383 784 425 784 c 4,41,42
 442 784 442 784 465 782 c 5,43,44
 494 774 494 774 508.5 757.5 c 132,-1,45
 523 741 523 741 523 723 c 4,46,47
 523 718 523 718 522 713 c 4,48,49
 517 691 517 691 498 676 c 4,50,51
 479 662 479 662 414 661 c 4,52,53
 411 660 411 660 408 661 c 4,54,55
 398 652 398 652 392.5 614.5 c 132,-1,56
 387 577 387 577 387 554 c 132,-1,57
 387 531 387 531 383 490 c 132,-1,58
 379 449 379 449 379 446 c 4,59,60
 380 439 380 439 380.5 435 c 132,-1,61
 381 431 381 431 380 429 c 4,62,63
 380 415 380 415 377 403 c 4,64,65
 370 380 370 380 345 365 c 5,66,67
 322 353 322 353 309 347 c 132,-1,68
 296 341 296 341 290 338 c 5,69,70
 298 334 298 334 310.5 326 c 132,-1,71
 323 318 323 318 342 307 c 5,72,73
 357 290 357 290 361 282 c 132,-1,74
 365 274 365 274 373 252 c 5,75,76
 383 215 383 215 384 167 c 4,77,78
 384 148 384 148 384.5 126.5 c 132,-1,79
 385 105 385 105 384 81.5 c 132,-1,80
 383 58 383 58 383 46.5 c 132,-1,81
 383 35 383 35 383 29 c 4,82,83
 384 19 384 19 395 3 c 4,84,85
 400 0 400 0 403 -4 c 4,86,87
 412 -6 412 -6 431 -7 c 4,88,89
 443 -6 443 -6 447 -6 c 4,90,91
 481 -6 481 -6 501 -23 c 4,92,93
 527 -44 527 -44 527 -75 c 4,0,1
EndSplineSet
EndChar

StartChar: bar
Encoding: 124 124 94
Width: 624
Flags: W
LayerCount: 2
Fore
SplineSet
242 721 m 1,0,1
 250 754 250 754 269 772 c 0,2,3
 289 790 289 790 314 790 c 0,4,5
 339 789 339 789 359 774 c 0,6,7
 379 758 379 758 388 725 c 1,8,-1
 386 -99 l 5,9,10
 384 -136 384 -136 363 -157 c 4,11,12
 340 -177 340 -177 314 -177 c 4,13,14
 287 -177 287 -177 267 -159 c 4,15,16
 245 -140 245 -140 240 -103 c 5,17,-1
 242 721 l 1,0,1
EndSplineSet
EndChar

StartChar: braceright
Encoding: 125 125 95
Width: 624
Flags: W
LayerCount: 2
Fore
SplineSet
128 -75 m 4,0,1
 128 -94 128 -94 140 -108 c 4,2,3
 149 -118 149 -118 166 -123.5 c 132,-1,4
 183 -129 183 -129 227 -129 c 4,5,6
 248 -129 248 -129 279 -128 c 5,7,8
 319 -112 319 -112 343 -95 c 4,9,10
 371 -75 371 -75 382 -34 c 4,11,12
 399 28 399 28 398 62 c 4,13,14
 398 73 398 73 396 84.5 c 132,-1,15
 394 96 394 96 394 139 c 132,-1,16
 394 182 394 182 408 211 c 5,17,18
 428 225 428 225 440.5 235.5 c 132,-1,19
 453 246 453 246 484 266 c 4,20,21
 524 292 524 292 527 328 c 4,22,23
 527 330 527 330 527 332 c 4,24,25
 527 368 527 368 468 405 c 4,26,27
 464 408 464 408 459 412 c 6,28,-1
 430 433 l 5,29,30
 414 443 414 443 412 444 c 4,31,32
 409 447 409 447 402 451 c 5,33,34
 398 491 398 491 395.5 517 c 132,-1,35
 393 543 393 543 393 582.5 c 132,-1,36
 393 622 393 622 385.5 661.5 c 132,-1,37
 378 701 378 701 350.5 730.5 c 132,-1,38
 323 760 323 760 294 774 c 4,39,40
 272 784 272 784 230 784 c 4,41,42
 213 784 213 784 190 782 c 5,43,44
 161 774 161 774 146.5 757.5 c 132,-1,45
 132 741 132 741 132 723 c 4,46,47
 132 718 132 718 133 713 c 4,48,49
 138 691 138 691 157 676 c 4,50,51
 176 662 176 662 241 661 c 4,52,53
 244 660 244 660 247 661 c 4,54,55
 257 652 257 652 262.5 614.5 c 132,-1,56
 268 577 268 577 268 554 c 132,-1,57
 268 531 268 531 272 490 c 132,-1,58
 276 449 276 449 276 446 c 4,59,60
 275 439 275 439 274.5 435 c 132,-1,61
 274 431 274 431 274 429 c 4,62,63
 274 415 274 415 278 403 c 4,64,65
 285 380 285 380 309 365 c 5,66,67
 332 353 332 353 345.5 347 c 132,-1,68
 359 341 359 341 365 338 c 5,69,70
 357 334 357 334 344.5 326 c 132,-1,71
 332 318 332 318 313 307 c 5,72,73
 298 290 298 290 294 282 c 132,-1,74
 290 274 290 274 282 252 c 5,75,76
 272 215 272 215 270 167 c 4,77,78
 270 148 270 148 270 126.5 c 132,-1,79
 270 105 270 105 271 81.5 c 132,-1,80
 272 58 272 58 272 46.5 c 132,-1,81
 272 35 272 35 272 29 c 4,82,83
 271 19 271 19 260 3 c 4,84,85
 255 0 255 0 252 -4 c 4,86,87
 243 -6 243 -6 224 -7 c 4,88,89
 212 -6 212 -6 208 -6 c 4,90,91
 174 -6 174 -6 154 -23 c 4,92,93
 128 -44 128 -44 128 -75 c 4,0,1
EndSplineSet
EndChar

StartChar: asciitilde
Encoding: 126 126 96
Width: 624
Flags: W
LayerCount: 2
Fore
SplineSet
520 475 m 0,0,1
 540 475 540 475 561 454 c 128,-1,2
 582 433 582 433 582 402 c 0,3,4
 582 398 582 398 581 395 c 0,5,6
 581 359 581 359 553 327 c 0,7,8
 504 272 504 272 448 244 c 0,9,10
 424 235 424 235 410 229 c 0,11,12
 403 225 403 225 391 225 c 0,13,14
 389 225 389 225 387 225 c 0,15,16
 373 225 373 225 356 230 c 1,17,18
 325 243 325 243 315 254 c 0,19,20
 305 264 305 264 286 281 c 128,-1,21
 267 298 267 298 246 326 c 0,22,23
 235 341 235 341 225 341 c 0,24,25
 224 341 224 341 223 341 c 0,26,27
 206 336 206 336 199 324 c 0,28,29
 186 305 186 305 167 286 c 0,30,31
 149 266 149 266 135 254 c 0,32,33
 121 241 121 241 99 233 c 1,34,-1
 95 233 l 2,35,36
 62 233 62 233 47 256 c 0,37,38
 36 274 36 274 36 300 c 0,39,40
 36 330 36 330 62 358 c 0,41,42
 83 381 83 381 111 410 c 0,43,44
 139 440 139 440 169 458 c 0,45,46
 198 476 198 476 228 476 c 0,47,48
 234 476 234 476 240 475 c 0,49,50
 297 474 297 474 349 412 c 0,51,52
 371 385 371 385 383 370 c 0,53,54
 388 365 388 365 390 365 c 0,55,56
 408 367 408 367 425 384 c 128,-1,57
 442 401 442 401 461 427 c 0,58,59
 489 475 489 475 520 475 c 0,0,1
EndSplineSet
EndChar

